<svg width="211" height="277" viewBox="0 0 211 277" fill="none" xmlns="http://www.w3.org/2000/svg">
<g clip-path="url(#clip0_2798_4150)">
<path d="M116.241 136.594L108.262 141.216C106.94 141.999 105.592 142.737 104.245 143.475L100.21 145.703C98.7818 146.487 97.3639 147.296 95.9272 148.07C94.4872 148.838 93.0545 149.618 91.64 150.422C89.7502 151.491 87.8722 152.582 85.9746 153.637L80.2472 156.739C76.4486 158.847 72.5642 160.787 68.7022 162.774L65.7997 164.254L62.8667 165.669L56.996 168.494L55.5262 169.196L54.0417 169.866L51.0713 171.202L45.1223 173.86L37.716 176.944C36.4793 177.452 35.2498 177.979 34.0065 178.471L30.2659 179.919C27.7685 180.874 25.2847 181.867 22.7741 182.787L15.2235 185.493C5.12202 188.999 -5.0641 192.269 -15.3747 195.083C-16.927 195.518 -18.5007 195.904 -20.0754 196.262C-21.6572 196.594 -23.2444 196.883 -24.8108 197.176C-27.8136 197.73 -29.8912 197.527 -31.2871 196.925C-33.3176 196.048 -31.9196 194.191 -27.8661 192.781C-26.5827 192.334 -25.2261 191.925 -23.8488 191.549C-22.4676 191.189 -21.0754 190.826 -19.7217 190.474C-7.22053 187.414 5.04115 183.423 16.9619 178.532C18.6044 177.86 20.2804 177.174 21.9453 176.493C23.6031 175.794 25.2632 175.139 26.9056 174.606C32.1719 172.953 37.2822 170.822 42.4009 168.717C44.9427 167.621 47.4651 166.478 50.0017 165.372C51.2666 164.811 52.5422 164.275 53.8028 163.706L57.5848 162.004C59.4637 161.174 61.3392 160.33 63.2114 159.473C65.0747 158.597 66.9168 157.673 68.7687 156.767L74.3136 154.027L79.8088 151.192C92.884 144.488 105.698 137.251 118.158 129.415C119.4 128.631 120.637 127.882 121.869 127.166C122.482 126.804 123.108 126.475 123.729 126.148C124.341 125.81 124.951 125.48 125.559 125.158C127.99 123.875 130.385 122.743 132.719 121.78C134.868 120.898 135.367 121.876 133.375 123.657C131.963 124.913 130.502 126.182 129.011 127.448C127.512 128.701 126.024 130.014 124.426 131.149C121.797 133.018 118.968 134.738 116.217 136.5L116.241 136.594Z" fill="#1D4059"/>
<path d="M135.484 117.685C115.212 125.239 99.4579 125.662 78.0468 122.988C117.488 115.414 144.915 101.432 178.986 79.9441C156.993 105.586 147.67 127.639 136.931 159.732C132.119 146.108 132.971 132.192 135.35 117.902" fill="#1D4059"/>
<path d="M139.025 155.243L139.243 156.095C139.32 156.377 139.413 156.655 139.497 156.935L140.012 158.616L133.835 158.69C136.797 150.335 139.887 141.993 143.34 133.757C144.36 131.258 145.485 128.789 146.572 126.307L148.277 122.614C148.829 121.377 149.423 120.158 150.012 118.938C153.522 111.542 157.52 104.39 161.981 97.5314C166.465 90.6934 171.364 84.1406 176.651 77.9105L180.62 82.5833C175.392 85.9125 170.155 89.2357 164.81 92.411C162.156 94.0263 159.449 95.5635 156.755 97.1197C155.409 97.9002 154.033 98.6327 152.672 99.3907C151.306 100.14 149.95 100.905 148.561 101.616L144.446 103.769C143.069 104.477 141.671 105.148 140.284 105.839L138.199 106.867C137.502 107.206 136.793 107.522 136.091 107.851L131.867 109.804L127.59 111.644C126.876 111.947 126.168 112.265 125.448 112.555L123.284 113.415C121.838 113.981 120.404 114.577 118.948 115.117L114.57 116.709C113.117 117.258 111.634 117.719 110.162 118.212L107.951 118.942C107.215 119.187 106.478 119.431 105.732 119.644C102.756 120.525 99.7903 121.445 96.7837 122.203C90.7997 123.846 84.737 125.127 78.6712 126.351L78.4789 119.589C83.5859 120.229 88.6847 120.739 93.7621 120.954C98.809 121.191 103.868 121.072 108.901 120.597C113.967 120.14 119.003 119.386 123.985 118.337C125.165 118.062 126.254 117.852 127.26 117.698C128.26 117.515 129.175 117.382 130.015 117.306C130.435 117.266 130.837 117.244 131.219 117.225C131.599 117.2 131.961 117.187 132.306 117.186C132.93 117.181 133.554 117.223 134.172 117.313C135.793 117.557 136.077 118.305 135.102 119.348C134.389 120.041 133.586 120.632 132.714 121.103C131.354 121.837 129.941 122.467 128.488 122.987C123.959 124.588 119.276 125.702 114.518 126.309C108.367 127.087 102.166 127.372 95.9732 127.159C89.8228 126.961 83.7375 126.393 77.706 125.684C77.0692 125.609 76.4807 125.307 76.0465 124.833C75.6122 124.359 75.3607 123.744 75.3371 123.098C75.3136 122.452 75.5195 121.818 75.9179 121.31C76.3163 120.802 76.881 120.453 77.5104 120.326L77.5533 120.318C86.4432 118.56 95.2148 116.231 103.814 113.347C104.504 113.131 105.189 112.888 105.873 112.635L107.934 111.889L110.003 111.145L111.038 110.775L112.063 110.379C113.43 109.854 114.795 109.342 116.153 108.854C116.493 108.733 116.833 108.613 117.171 108.492L118.175 108.112C118.843 107.862 119.508 107.62 120.172 107.386C128.665 104.332 136.934 100.676 144.918 96.443C152.957 92.2536 160.806 87.6549 168.639 83.0353C171.632 81.295 174.583 79.4558 177.56 77.6355L177.583 77.6212C178.134 77.2844 178.785 77.156 179.419 77.259C180.054 77.362 180.631 77.6897 181.046 78.1833C181.46 78.6769 181.687 79.304 181.684 79.9522C181.681 80.6004 181.449 81.2272 181.029 81.7201C177.785 85.5315 174.581 89.3935 171.625 93.4375C170.103 95.4282 168.696 97.4984 167.259 99.5483C166.533 100.569 165.878 101.635 165.183 102.675C164.499 103.723 163.796 104.758 163.155 105.833L161.208 108.999C160.574 110.064 159.97 111.147 159.349 112.22L158.424 113.834L157.546 115.475L155.796 118.762C153.547 123.191 151.426 127.694 149.462 132.28C145.532 141.449 142.121 150.881 138.828 160.369L138.813 160.414C138.676 160.808 138.421 161.15 138.082 161.393C137.744 161.635 137.34 161.765 136.925 161.765C136.511 161.765 136.108 161.635 135.771 161.393C135.434 161.151 135.182 160.809 135.048 160.414C133.653 156.277 132.687 152.005 132.165 147.664C131.871 145.228 131.731 142.774 131.747 140.318C131.754 137.963 131.894 135.611 132.166 133.271C132.673 128.933 133.589 124.652 134.902 120.487C135.493 118.68 136.047 117.89 136.454 118.096C136.848 118.299 137.145 119.506 137.077 121.665C136.542 127.826 136.411 134.015 136.687 140.19C136.742 141.456 136.865 142.716 136.952 143.986C137.095 145.247 137.199 146.519 137.395 147.775C137.547 149.041 137.797 150.287 138.023 151.537L138.437 153.394C138.567 154.014 138.762 154.616 138.921 155.227L139.025 155.243Z" fill="#1D4059"/>
</g>
<defs>
<clipPath id="clip0_2798_4150">
<rect width="230" height="228" fill="white" transform="translate(-64 223.805) rotate(-76.6716)"/>
</clipPath>
</defs>
</svg>
