<svg width="11" height="10" viewBox="0 0 11 10" fill="none" xmlns="http://www.w3.org/2000/svg">
<path d="M9.40555 0.542856C9.28509 0.489712 9.15533 0.460877 9.02371 0.458004L1.95264 0.458004C1.82078 0.458003 1.69021 0.483975 1.56839 0.534435C1.44657 0.584896 1.33588 0.658856 1.24264 0.752095C1.05434 0.940399 0.948549 1.19579 0.948549 1.4621C0.948549 1.59395 0.97452 1.72452 1.02498 1.84634C1.07544 1.96817 1.1494 2.07886 1.24264 2.17209C1.43094 2.3604 1.68634 2.46619 1.95264 2.46619L6.61247 2.45912L1.24553 7.82606C1.058 8.01359 0.952641 8.26795 0.952641 8.53316C0.952641 8.79838 1.058 9.05273 1.24553 9.24027C1.43307 9.42781 1.68742 9.53316 1.95264 9.53316C2.21786 9.53316 2.47221 9.42781 2.65975 9.24027L8.02669 3.87333L8.01962 8.53316C8.01908 8.66517 8.04468 8.79598 8.09495 8.91805C8.14521 9.04012 8.21916 9.15102 8.3125 9.24437C8.40585 9.33772 8.51675 9.41166 8.63882 9.46192C8.76089 9.51219 8.8917 9.53779 9.02371 9.53725C9.15572 9.53779 9.28653 9.51219 9.4086 9.46193C9.53066 9.41166 9.64157 9.33772 9.73491 9.24437C9.82826 9.15102 9.9022 9.04012 9.95247 8.91805C10.0027 8.79599 10.0283 8.66517 10.0278 8.53316L10.0278 1.4621C10.0249 1.33047 9.99609 1.20071 9.94295 1.08026C9.84152 0.837381 9.64842 0.644286 9.40555 0.542856Z" fill="white"/>
</svg>
