<svg width="48" height="37" viewBox="0 0 48 37" fill="none" xmlns="http://www.w3.org/2000/svg">
<g clip-path="url(#clip0_2454_12846)">
<g filter="url(#filter0_di_2454_12846)">
<path d="M42.8365 32.4604L40.8365 24.7404L34.5365 1.56037C34.4003 1.04905 34.0671 0.612521 33.6098 0.346372C33.1525 0.0802229 32.6083 0.00614949 32.0965 0.140373L24.3565 2.14037C24.1718 1.93566 23.9467 1.77136 23.6955 1.65778C23.4442 1.5442 23.1722 1.4838 22.8965 1.48037L2.89648 1.48037C2.36605 1.48037 1.85734 1.69109 1.48227 2.06616C1.1072 2.44123 0.896484 2.94994 0.896484 3.48037L0.896484 35.4804C0.896484 36.0108 1.1072 36.5195 1.48227 36.8946C1.85734 37.2697 2.36605 37.4804 2.89648 37.4804H22.8965C23.4269 37.4804 23.9356 37.2697 24.3107 36.8946C24.6858 36.5195 24.8965 36.0108 24.8965 35.4804V19.4804L29.2965 35.9204C29.4137 36.3567 29.6752 36.7405 30.0383 37.0092C30.4015 37.278 30.845 37.4158 31.2965 37.4004C31.4693 37.42 31.6437 37.42 31.8165 37.4004L41.4765 34.8204C41.7319 34.7521 41.9712 34.6339 42.1806 34.4725C42.39 34.3112 42.5653 34.1099 42.6965 33.8804C42.9075 33.4379 42.957 32.9355 42.8365 32.4604ZM10.8365 33.5604H4.83648V29.5604H10.8365V33.5604ZM10.8365 25.5604H4.83648V13.5604H10.8365V25.5604ZM10.8365 9.56037H4.83648V5.56037H10.8365V9.56037ZM20.8365 33.5604H14.8365V29.5604H20.8365V33.5604ZM20.8365 25.5604H14.8365V13.5604H20.8365V25.5604ZM20.8365 9.56037H14.8365V5.56037H20.8365V9.56037ZM25.3365 6.08037L31.1365 4.52037L32.1765 8.38037L26.3765 9.94037L25.3365 6.08037ZM30.5165 25.4004L27.4165 13.8004L33.2165 12.2404L36.3165 23.8404L30.5165 25.4004ZM32.5165 33.1204L31.4765 29.2604L37.2765 27.7004L38.3165 31.5604L32.5165 33.1204Z" fill="url(#paint0_linear_2454_12846)"/>
</g>
</g>
<defs>
<filter id="filter0_di_2454_12846" x="-0.103516" y="0.0749512" width="44.0049" height="39.4055" filterUnits="userSpaceOnUse" color-interpolation-filters="sRGB">
<feFlood flood-opacity="0" result="BackgroundImageFix"/>
<feColorMatrix in="SourceAlpha" type="matrix" values="0 0 0 0 0 0 0 0 0 0 0 0 0 0 0 0 0 0 127 0" result="hardAlpha"/>
<feOffset dy="1"/>
<feGaussianBlur stdDeviation="0.5"/>
<feComposite in2="hardAlpha" operator="out"/>
<feColorMatrix type="matrix" values="0 0 0 0 0 0 0 0 0 0 0 0 0 0 0 0 0 0 0.25 0"/>
<feBlend mode="normal" in2="BackgroundImageFix" result="effect1_dropShadow_2454_12846"/>
<feBlend mode="normal" in="SourceGraphic" in2="effect1_dropShadow_2454_12846" result="shape"/>
<feColorMatrix in="SourceAlpha" type="matrix" values="0 0 0 0 0 0 0 0 0 0 0 0 0 0 0 0 0 0 127 0" result="hardAlpha"/>
<feOffset dy="1"/>
<feGaussianBlur stdDeviation="0.5"/>
<feComposite in2="hardAlpha" operator="arithmetic" k2="-1" k3="1"/>
<feColorMatrix type="matrix" values="0 0 0 0 1 0 0 0 0 1 0 0 0 0 1 0 0 0 0.75 0"/>
<feBlend mode="normal" in2="shape" result="effect2_innerShadow_2454_12846"/>
</filter>
<linearGradient id="paint0_linear_2454_12846" x1="-5.99487" y1="-5.18519" x2="44.6886" y2="62.2816" gradientUnits="userSpaceOnUse">
<stop stop-color="#000826"/>
<stop offset="0.422616" stop-color="#001971"/>
<stop offset="1" stop-color="#0029BC"/>
</linearGradient>
<clipPath id="clip0_2454_12846">
<rect width="48" height="37" fill="white"/>
</clipPath>
</defs>
</svg>
