<svg width="28" height="28" viewBox="0 0 28 28" fill="none" xmlns="http://www.w3.org/2000/svg">
<path d="M26.0003 16.6666H24.667V1.99996C24.667 1.64634 24.5265 1.3072 24.2765 1.05715C24.0264 0.807102 23.6873 0.666626 23.3337 0.666626H4.66699C4.31337 0.666626 3.97423 0.807102 3.72418 1.05715C3.47413 1.3072 3.33366 1.64634 3.33366 1.99996V16.6666H2.00033C1.6467 16.6666 1.30756 16.8071 1.05752 17.0571C0.807468 17.3072 0.666992 17.6463 0.666992 18C0.666992 18.3536 0.807468 18.6927 1.05752 18.9428C1.30756 19.1928 1.6467 19.3333 2.00033 19.3333H12.667V20.8666L6.60033 24.8666C6.35144 25.0207 6.16016 25.2524 6.05602 25.5259C5.95187 25.7995 5.94064 26.0997 6.02405 26.3803C6.10747 26.6609 6.28089 26.9062 6.51757 27.0784C6.75425 27.2507 7.04103 27.3402 7.33366 27.3333C7.59579 27.3363 7.85227 27.257 8.06699 27.1066L12.667 24.0666V26C12.667 26.3536 12.8075 26.6927 13.0575 26.9428C13.3076 27.1928 13.6467 27.3333 14.0003 27.3333C14.3539 27.3333 14.6931 27.1928 14.9431 26.9428C15.1932 26.6927 15.3337 26.3536 15.3337 26V24.0666L19.9337 27.1066C20.1484 27.257 20.4049 27.3363 20.667 27.3333C20.9519 27.3311 21.2285 27.2377 21.4565 27.0668C21.6844 26.896 21.8516 26.6566 21.9336 26.3838C22.0156 26.111 22.0081 25.819 21.9121 25.5508C21.8161 25.2826 21.6368 25.0522 21.4003 24.8933L15.3337 20.8933V19.3333H26.0003C26.3539 19.3333 26.6931 19.1928 26.9431 18.9428C27.1932 18.6927 27.3337 18.3536 27.3337 18C27.3337 17.6463 27.1932 17.3072 26.9431 17.0571C26.6931 16.8071 26.3539 16.6666 26.0003 16.6666ZM22.0003 16.6666H6.00033V3.33329H22.0003V16.6666ZM10.0003 14C10.2199 13.9988 10.4359 13.9435 10.6289 13.8388C10.822 13.7341 10.9862 13.5834 11.107 13.4L12.8803 10.7333L14.387 12.2533C14.5269 12.3941 14.6964 12.5018 14.8833 12.5687C15.0701 12.6356 15.2695 12.6599 15.467 12.64C15.6636 12.6184 15.8529 12.5534 16.0212 12.4496C16.1896 12.3458 16.3327 12.2059 16.4403 12.04L19.107 8.03996C19.264 7.7472 19.3061 7.40636 19.225 7.0842C19.1439 6.76203 18.9455 6.48175 18.6685 6.29824C18.3916 6.11473 18.0561 6.04122 17.7278 6.09209C17.3995 6.14297 17.1021 6.31457 16.8937 6.57329L15.1203 9.23996L13.6137 7.71996C13.4738 7.5792 13.3042 7.47144 13.1174 7.40454C12.9305 7.33765 12.7311 7.31331 12.5337 7.33329C12.3371 7.35486 12.1478 7.41989 11.9794 7.52366C11.8111 7.62744 11.6679 7.76736 11.5603 7.93329L8.89366 11.9333C8.70068 12.2272 8.63164 12.5855 8.70156 12.9301C8.77149 13.2748 8.97471 13.5778 9.26699 13.7733C9.48172 13.9237 9.73819 14.003 10.0003 14Z" fill="#F8F8F6"/>
</svg>
