<svg width="37" height="41" viewBox="0 0 37 41" fill="none" xmlns="http://www.w3.org/2000/svg">
<g clip-path="url(#clip0_2454_12855)">
<g filter="url(#filter0_di_2454_12855)">
<path d="M35.5626 29.9913L30.7226 25.1513C30.5367 24.9638 30.3155 24.815 30.0717 24.7135C29.828 24.612 29.5666 24.5597 29.3026 24.5597C29.0386 24.5597 28.7771 24.612 28.5334 24.7135C28.2897 24.815 28.0685 24.9638 27.8826 25.1513L20.7226 32.3113C20.5372 32.4982 20.3906 32.7198 20.291 32.9635C20.1915 33.2072 20.1411 33.4681 20.1426 33.7313V38.5713C20.1426 39.1017 20.3533 39.6104 20.7284 39.9855C21.1034 40.3606 21.6121 40.5713 22.1426 40.5713H26.9826C27.2458 40.5728 27.5067 40.5224 27.7504 40.4228C27.9941 40.3233 28.2157 40.1767 28.4026 39.9913L35.5626 32.8313C35.75 32.6454 35.8988 32.4242 36.0004 32.1804C36.1019 31.9367 36.1542 31.6753 36.1542 31.4113C36.1542 31.1473 36.1019 30.8859 36.0004 30.6421C35.8988 30.3984 35.75 30.1772 35.5626 29.9913ZM26.1426 36.5713H24.1426V34.5713L29.3026 29.4113L31.3026 31.4113L26.1426 36.5713ZM14.1426 36.5713H6.14258C5.61215 36.5713 5.10344 36.3606 4.72837 35.9855C4.35329 35.6104 4.14258 35.1017 4.14258 34.5713V6.57129C4.14258 6.04086 4.35329 5.53215 4.72837 5.15708C5.10344 4.782 5.61215 4.57129 6.14258 4.57129H16.1426V10.5713C16.1426 12.1626 16.7747 13.6887 17.8999 14.8139C19.0252 15.9391 20.5513 16.5713 22.1426 16.5713H28.1426V18.5713C28.1426 19.1017 28.3533 19.6104 28.7284 19.9855C29.1034 20.3606 29.6121 20.5713 30.1426 20.5713C30.673 20.5713 31.1817 20.3606 31.5568 19.9855C31.9319 19.6104 32.1426 19.1017 32.1426 18.5713V14.5713C32.1426 14.5713 32.1426 14.5713 32.1426 14.4513C32.1217 14.2676 32.0815 14.0866 32.0226 13.9113V13.7313C31.9264 13.5256 31.7981 13.3366 31.6426 13.1713L19.6426 1.17129C19.4772 1.01572 19.2882 0.887451 19.0826 0.791289C19.0229 0.782809 18.9623 0.782809 18.9026 0.791289L18.2626 0.571289H6.14258C4.55128 0.571289 3.02516 1.20343 1.89994 2.32865C0.774719 3.45387 0.142578 4.97999 0.142578 6.57129V34.5713C0.142578 36.1626 0.774719 37.6887 1.89994 38.8139C3.02516 39.9391 4.55128 40.5713 6.14258 40.5713H14.1426C14.673 40.5713 15.1817 40.3606 15.5568 39.9855C15.9319 39.6104 16.1426 39.1017 16.1426 38.5713C16.1426 38.0409 15.9319 37.5321 15.5568 37.1571C15.1817 36.782 14.673 36.5713 14.1426 36.5713ZM20.1426 7.39129L25.3226 12.5713H22.1426C21.6121 12.5713 21.1034 12.3606 20.7284 11.9855C20.3533 11.6104 20.1426 11.1017 20.1426 10.5713V7.39129ZM10.1426 24.5713H22.1426C22.673 24.5713 23.1817 24.3606 23.5568 23.9855C23.9319 23.6104 24.1426 23.1017 24.1426 22.5713C24.1426 22.0409 23.9319 21.5321 23.5568 21.1571C23.1817 20.782 22.673 20.5713 22.1426 20.5713H10.1426C9.61215 20.5713 9.10344 20.782 8.72837 21.1571C8.35329 21.5321 8.14258 22.0409 8.14258 22.5713C8.14258 23.1017 8.35329 23.6104 8.72837 23.9855C9.10344 24.3606 9.61215 24.5713 10.1426 24.5713ZM10.1426 16.5713H12.1426C12.673 16.5713 13.1817 16.3606 13.5568 15.9855C13.9319 15.6104 14.1426 15.1017 14.1426 14.5713C14.1426 14.0409 13.9319 13.5321 13.5568 13.1571C13.1817 12.782 12.673 12.5713 12.1426 12.5713H10.1426C9.61215 12.5713 9.10344 12.782 8.72837 13.1571C8.35329 13.5321 8.14258 14.0409 8.14258 14.5713C8.14258 15.1017 8.35329 15.6104 8.72837 15.9855C9.10344 16.3606 9.61215 16.5713 10.1426 16.5713ZM14.1426 28.5713H10.1426C9.61215 28.5713 9.10344 28.782 8.72837 29.1571C8.35329 29.5321 8.14258 30.0409 8.14258 30.5713C8.14258 31.1017 8.35329 31.6104 8.72837 31.9855C9.10344 32.3606 9.61215 32.5713 10.1426 32.5713H14.1426C14.673 32.5713 15.1817 32.3606 15.5568 31.9855C15.9319 31.6104 16.1426 31.1017 16.1426 30.5713C16.1426 30.0409 15.9319 29.5321 15.5568 29.1571C15.1817 28.782 14.673 28.5713 14.1426 28.5713Z" fill="url(#paint0_linear_2454_12855)"/>
</g>
</g>
<defs>
<filter id="filter0_di_2454_12855" x="-0.857422" y="0.571289" width="38.0117" height="42" filterUnits="userSpaceOnUse" color-interpolation-filters="sRGB">
<feFlood flood-opacity="0" result="BackgroundImageFix"/>
<feColorMatrix in="SourceAlpha" type="matrix" values="0 0 0 0 0 0 0 0 0 0 0 0 0 0 0 0 0 0 127 0" result="hardAlpha"/>
<feOffset dy="1"/>
<feGaussianBlur stdDeviation="0.5"/>
<feComposite in2="hardAlpha" operator="out"/>
<feColorMatrix type="matrix" values="0 0 0 0 0 0 0 0 0 0 0 0 0 0 0 0 0 0 0.25 0"/>
<feBlend mode="normal" in2="BackgroundImageFix" result="effect1_dropShadow_2454_12855"/>
<feBlend mode="normal" in="SourceGraphic" in2="effect1_dropShadow_2454_12855" result="shape"/>
<feColorMatrix in="SourceAlpha" type="matrix" values="0 0 0 0 0 0 0 0 0 0 0 0 0 0 0 0 0 0 127 0" result="hardAlpha"/>
<feOffset dy="1"/>
<feGaussianBlur stdDeviation="0.5"/>
<feComposite in2="hardAlpha" operator="arithmetic" k2="-1" k3="1"/>
<feColorMatrix type="matrix" values="0 0 0 0 1 0 0 0 0 1 0 0 0 0 1 0 0 0 0.7 0"/>
<feBlend mode="normal" in2="shape" result="effect2_innerShadow_2454_12855"/>
</filter>
<linearGradient id="paint0_linear_2454_12855" x1="-5.76557" y1="-5.05372" x2="50.5468" y2="55.0426" gradientUnits="userSpaceOnUse">
<stop stop-color="#000826"/>
<stop offset="0.422616" stop-color="#001971"/>
<stop offset="1" stop-color="#0029BC"/>
</linearGradient>
<clipPath id="clip0_2454_12855">
<rect width="37" height="41" fill="white"/>
</clipPath>
</defs>
</svg>
