<svg width="48" height="45" viewBox="0 0 48 45" fill="none" xmlns="http://www.w3.org/2000/svg">
<g clip-path="url(#clip0_2454_12831)">
<g filter="url(#filter0_di_2454_12831)">
<path d="M30.1675 27.9605C28.6741 29.1646 26.8135 29.8212 24.8951 29.8212C22.9768 29.8212 21.1162 29.1646 19.6228 27.9605C19.1666 27.5813 18.5784 27.3989 17.9876 27.4533C17.3969 27.5078 16.852 27.7947 16.4728 28.2509C16.0936 28.7072 15.9111 29.2954 15.9656 29.8861C16.0201 30.4768 16.307 31.0217 16.7632 31.4009C19.0449 33.3057 21.9229 34.3491 24.8951 34.3491C27.8674 34.3491 30.7453 33.3057 33.0271 31.4009C33.4833 31.0217 33.7702 30.4768 33.8246 29.8861C33.8791 29.2954 33.6967 28.7072 33.3175 28.2509C33.1297 28.025 32.8993 27.8383 32.6394 27.7015C32.3795 27.5646 32.0951 27.4803 31.8026 27.4533C31.2119 27.3989 30.6237 27.5813 30.1675 27.9605ZM18.193 22.3307L18.8409 21.6605L19.4887 22.3307C19.6964 22.5401 19.9435 22.7063 20.2158 22.8197C20.488 22.9332 20.78 22.9916 21.0749 22.9916C21.3698 22.9916 21.6618 22.9332 21.9341 22.8197C22.2063 22.7063 22.4534 22.5401 22.6611 22.3307C22.8705 22.123 23.0367 21.876 23.1501 21.6037C23.2635 21.3315 23.3219 21.0395 23.3219 20.7446C23.3219 20.4496 23.2635 20.1576 23.1501 19.8854C23.0367 19.6132 22.8705 19.3661 22.6611 19.1584L21.9909 18.5105L22.6611 17.8626C23.0818 17.4301 23.3134 16.8482 23.305 16.2449C23.2966 15.6416 23.0489 15.0663 22.6164 14.6456C22.1839 14.2249 21.6019 13.9933 20.9986 14.0017C20.3953 14.0101 19.8201 14.2578 19.3994 14.6903L18.7515 15.3605L18.193 14.6903C17.7723 14.2578 17.1971 14.0101 16.5937 14.0017C15.9904 13.9933 15.4085 14.2249 14.976 14.6456C14.5434 15.0663 14.2957 15.6416 14.2874 16.2449C14.279 16.8482 14.5106 17.4301 14.9313 17.8626L15.6015 18.5105L14.9313 19.1584C14.7219 19.3661 14.5557 19.6132 14.4423 19.8854C14.3289 20.1576 14.2705 20.4496 14.2705 20.7446C14.2705 21.0395 14.3289 21.3315 14.4423 21.6037C14.5557 21.876 14.7219 22.123 14.9313 22.3307C15.139 22.5401 15.3861 22.7063 15.6583 22.8197C15.9305 22.9332 16.2225 22.9916 16.5175 22.9916C16.8124 22.9916 17.1044 22.9332 17.3766 22.8197C17.6489 22.7063 17.896 22.5401 18.1036 22.3307H18.193ZM24.8951 0.638184C20.4766 0.638184 16.1573 1.94843 12.4835 4.40322C8.80959 6.85802 5.94616 10.3471 4.25526 14.4293C2.56437 18.5115 2.12195 23.0034 2.98396 27.337C3.84597 31.6706 5.97369 35.6513 9.09806 38.7757C12.2224 41.9 16.2031 44.0277 20.5367 44.8898C24.8703 45.7518 29.3623 45.3094 33.4444 43.6185C37.5266 41.9276 41.0157 39.0641 43.4705 35.3903C45.9253 31.7164 47.2356 27.3971 47.2356 22.9786C47.2356 20.0448 46.6577 17.1398 45.535 14.4293C44.4123 11.7188 42.7667 9.25604 40.6922 7.18154C38.6177 5.10704 36.1549 3.46146 33.4444 2.33875C30.734 1.21604 27.8289 0.638184 24.8951 0.638184ZM24.8951 40.8509C21.3603 40.8509 17.9049 39.8027 14.9658 37.8389C12.0267 35.8751 9.73595 33.0838 8.38324 29.818C7.03052 26.5523 6.67659 22.9588 7.3662 19.4919C8.05581 16.025 9.75798 12.8404 12.2575 10.341C14.757 7.84146 17.9415 6.13929 21.4084 5.44968C24.8753 4.76007 28.4688 5.114 31.7346 6.46672C35.0003 7.81943 37.7916 10.1102 39.7554 13.0493C41.7193 15.9884 42.7675 19.4438 42.7675 22.9786C42.7675 27.7186 40.8845 32.2645 37.5328 35.6163C34.1811 38.968 29.6352 40.8509 24.8951 40.8509ZM36.0653 14.6903C35.8577 14.4809 35.6106 14.3147 35.3383 14.2013C35.0661 14.0879 34.7741 14.0295 34.4792 14.0295C34.1843 14.0295 33.8923 14.0879 33.62 14.2013C33.3478 14.3147 33.1007 14.4809 32.893 14.6903L32.2451 15.3605L31.5973 14.6903C31.1766 14.2696 30.606 14.0333 30.0111 14.0333C29.4162 14.0333 28.8456 14.2696 28.4249 14.6903C28.0042 15.111 27.7679 15.6815 27.7679 16.2765C27.7679 16.8714 28.0042 17.442 28.4249 17.8626L29.0951 18.5105L28.4249 19.1584C28.2155 19.3661 28.0493 19.6132 27.9359 19.8854C27.8225 20.1576 27.7641 20.4496 27.7641 20.7446C27.7641 21.0395 27.8225 21.3315 27.9359 21.6037C28.0493 21.876 28.2155 22.123 28.4249 22.3307C28.6326 22.5401 28.8797 22.7063 29.1519 22.8197C29.4242 22.9332 29.7162 22.9916 30.0111 22.9916C30.306 22.9916 30.598 22.9332 30.8703 22.8197C31.1425 22.7063 31.3896 22.5401 31.5973 22.3307L32.2451 21.6605L32.893 22.3307C33.1007 22.5401 33.3478 22.7063 33.62 22.8197C33.8923 22.9332 34.1843 22.9916 34.4792 22.9916C34.7741 22.9916 35.0661 22.9332 35.3383 22.8197C35.6106 22.7063 35.8577 22.5401 36.0653 22.3307C36.2747 22.123 36.4409 21.876 36.5544 21.6037C36.6678 21.3315 36.7262 21.0395 36.7262 20.7446C36.7262 20.4496 36.6678 20.1576 36.5544 19.8854C36.4409 19.6132 36.2747 19.3661 36.0653 19.1584L35.3951 18.5105L36.0653 17.8626C36.2747 17.655 36.4409 17.4079 36.5544 17.1356C36.6678 16.8634 36.7262 16.5714 36.7262 16.2765C36.7262 15.9816 36.6678 15.6896 36.5544 15.4173C36.4409 15.1451 36.2747 14.898 36.0653 14.6903Z" fill="url(#paint0_linear_2454_12831)"/>
</g>
</g>
<defs>
<filter id="filter0_di_2454_12831" x="1.55469" y="0.638184" width="46.6807" height="46.6809" filterUnits="userSpaceOnUse" color-interpolation-filters="sRGB">
<feFlood flood-opacity="0" result="BackgroundImageFix"/>
<feColorMatrix in="SourceAlpha" type="matrix" values="0 0 0 0 0 0 0 0 0 0 0 0 0 0 0 0 0 0 127 0" result="hardAlpha"/>
<feOffset dy="1"/>
<feGaussianBlur stdDeviation="0.5"/>
<feComposite in2="hardAlpha" operator="out"/>
<feColorMatrix type="matrix" values="0 0 0 0 0 0 0 0 0 0 0 0 0 0 0 0 0 0 0.25 0"/>
<feBlend mode="normal" in2="BackgroundImageFix" result="effect1_dropShadow_2454_12831"/>
<feBlend mode="normal" in="SourceGraphic" in2="effect1_dropShadow_2454_12831" result="shape"/>
<feColorMatrix in="SourceAlpha" type="matrix" values="0 0 0 0 0 0 0 0 0 0 0 0 0 0 0 0 0 0 127 0" result="hardAlpha"/>
<feOffset dy="1"/>
<feGaussianBlur stdDeviation="0.5"/>
<feComposite in2="hardAlpha" operator="arithmetic" k2="-1" k3="1"/>
<feColorMatrix type="matrix" values="0 0 0 0 1 0 0 0 0 1 0 0 0 0 1 0 0 0 0.6 0"/>
<feBlend mode="normal" in2="shape" result="effect2_innerShadow_2454_12831"/>
</filter>
<linearGradient id="paint0_linear_2454_12831" x1="-4.77577" y1="-5.64506" x2="57.3585" y2="68.0086" gradientUnits="userSpaceOnUse">
<stop stop-color="#000826"/>
<stop offset="0.422616" stop-color="#001971"/>
<stop offset="1" stop-color="#0029BC"/>
</linearGradient>
<clipPath id="clip0_2454_12831">
<rect width="47.8723" height="45" fill="white"/>
</clipPath>
</defs>
</svg>
