<svg width="38" height="22" viewBox="0 0 38 22" fill="none" xmlns="http://www.w3.org/2000/svg">
<g filter="url(#filter0_d_2798_3876)">
<path d="M35.1819 1.14974C35.027 0.993521 34.8427 0.869531 34.6396 0.784917C34.4365 0.700302 34.2186 0.656738 33.9986 0.656738C33.7786 0.656738 33.5607 0.700302 33.3576 0.784917C33.1545 0.869531 32.9702 0.993521 32.8153 1.14974L22.3319 11.6497L15.1819 4.48307C15.027 4.32685 14.8427 4.20286 14.6396 4.11825C14.4365 4.03364 14.2186 3.99007 13.9986 3.99007C13.7786 3.99007 13.5607 4.03364 13.3576 4.11825C13.1545 4.20286 12.9702 4.32685 12.8153 4.48307L2.81526 14.4831C2.65905 14.638 2.53506 14.8223 2.45044 15.0254C2.36583 15.2285 2.32227 15.4464 2.32227 15.6664C2.32227 15.8864 2.36583 16.1043 2.45044 16.3074C2.53506 16.5105 2.65905 16.6948 2.81526 16.8497C2.9702 17.0059 3.15454 17.1299 3.35764 17.2146C3.56073 17.2992 3.77858 17.3427 3.9986 17.3427C4.21862 17.3427 4.43646 17.2992 4.63956 17.2146C4.84266 17.1299 5.02699 17.0059 5.18193 16.8497L13.9986 8.0164L21.1486 15.1831C21.3035 15.3393 21.4879 15.4633 21.691 15.5479C21.8941 15.6325 22.1119 15.6761 22.3319 15.6761C22.5519 15.6761 22.7698 15.6325 22.9729 15.5479C23.176 15.4633 23.3603 15.3393 23.5153 15.1831L35.1819 3.5164C35.3381 3.36146 35.4621 3.17713 35.5467 2.97403C35.6314 2.77093 35.6749 2.55309 35.6749 2.33307C35.6749 2.11305 35.6314 1.89521 35.5467 1.69211C35.4621 1.48901 35.3381 1.30467 35.1819 1.14974Z" fill="#464935"/>
</g>
<defs>
<filter id="filter0_d_2798_3876" x="0.322266" y="0.656738" width="37.3525" height="20.686" filterUnits="userSpaceOnUse" color-interpolation-filters="sRGB">
<feFlood flood-opacity="0" result="BackgroundImageFix"/>
<feColorMatrix in="SourceAlpha" type="matrix" values="0 0 0 0 0 0 0 0 0 0 0 0 0 0 0 0 0 0 127 0" result="hardAlpha"/>
<feOffset dy="2"/>
<feGaussianBlur stdDeviation="1"/>
<feComposite in2="hardAlpha" operator="out"/>
<feColorMatrix type="matrix" values="0 0 0 0 0 0 0 0 0 0.160784 0 0 0 0 0.737255 0 0 0 0.3 0"/>
<feBlend mode="normal" in2="BackgroundImageFix" result="effect1_dropShadow_2798_3876"/>
<feBlend mode="normal" in="SourceGraphic" in2="effect1_dropShadow_2798_3876" result="shape"/>
</filter>
</defs>
</svg>
