<svg width="14" height="14" viewBox="0 0 14 14" fill="none" xmlns="http://www.w3.org/2000/svg">
<path d="M6.99818 4.00586C8.84388 4.00586 10.3673 5.5293 10.3673 7.375C10.3673 9.25 8.84388 10.7441 6.99818 10.7441C5.12318 10.7441 3.62904 9.25 3.62904 7.375C3.62904 5.5293 5.12318 4.00586 6.99818 4.00586ZM6.99818 9.57227C8.19935 9.57227 9.16615 8.60547 9.16615 7.375C9.16615 6.17383 8.19935 5.20703 6.99818 5.20703C5.76771 5.20703 4.80091 6.17383 4.80091 7.375C4.80091 8.60547 5.79701 9.57227 6.99818 9.57227ZM11.2755 3.88867C11.2755 4.32812 10.924 4.67969 10.4845 4.67969C10.0451 4.67969 9.69349 4.32812 9.69349 3.88867C9.69349 3.44922 10.0451 3.09766 10.4845 3.09766C10.924 3.09766 11.2755 3.44922 11.2755 3.88867ZM13.5021 4.67969C13.5607 5.76367 13.5607 9.01562 13.5021 10.0996C13.4435 11.1543 13.2091 12.0625 12.4474 12.8535C11.6857 13.6152 10.7482 13.8496 9.69349 13.9082C8.60951 13.9668 5.35755 13.9668 4.27357 13.9082C3.21888 13.8496 2.31068 13.6152 1.51966 12.8535C0.757943 12.0625 0.523568 11.1543 0.464974 10.0996C0.40638 9.01562 0.40638 5.76367 0.464974 4.67969C0.523568 3.625 0.757943 2.6875 1.51966 1.92578C2.31068 1.16406 3.21888 0.929688 4.27357 0.871094C5.35755 0.8125 8.60951 0.8125 9.69349 0.871094C10.7482 0.929688 11.6857 1.16406 12.4474 1.92578C13.2091 2.6875 13.4435 3.625 13.5021 4.67969ZM12.0958 11.2422C12.4474 10.3926 12.3595 8.3418 12.3595 7.375C12.3595 6.4375 12.4474 4.38672 12.0958 3.50781C11.8615 2.95117 11.422 2.48242 10.8654 2.27734C9.98646 1.92578 7.93568 2.01367 6.99818 2.01367C6.03138 2.01367 3.9806 1.92578 3.13099 2.27734C2.54505 2.51172 2.1056 2.95117 1.87122 3.50781C1.51966 4.38672 1.60755 6.4375 1.60755 7.375C1.60755 8.3418 1.51966 10.3926 1.87122 11.2422C2.1056 11.8281 2.54505 12.2676 3.13099 12.502C3.9806 12.8535 6.03138 12.7656 6.99818 12.7656C7.93568 12.7656 9.98646 12.8535 10.8654 12.502C11.422 12.2676 11.8908 11.8281 12.0958 11.2422Z" fill="#0029BC"/>
</svg>
