<svg width="12" height="12" viewBox="0 0 12 12" fill="none" xmlns="http://www.w3.org/2000/svg">
<path d="M0.183594 11.9516H3.29073V3.78101H0.183594V11.9516ZM0.886719 4.48413H2.5876V11.2485H0.886719V4.48413Z" fill="#0029BC"/>
<path d="M1.7367 0.0483398C0.779062 0.0483398 0 0.827426 0 1.78504C0 2.74264 0.779062 3.52175 1.7367 3.52175C2.69433 3.52175 3.47341 2.74267 3.47341 1.78504C3.47341 0.827402 2.6943 0.0483398 1.7367 0.0483398ZM0.703125 1.78504C0.703125 1.21513 1.16677 0.751465 1.7367 0.751465C2.30662 0.751465 2.77029 1.21511 2.77029 1.78504C2.77029 2.35496 2.30662 2.81863 1.7367 2.81863C1.16677 2.81863 0.703125 2.35494 0.703125 1.78504Z" fill="#0029BC"/>
<path d="M11.9933 6.34664C11.8827 4.75629 10.5561 3.53076 8.91151 3.53076C8.17587 3.53076 7.48145 3.78651 6.9343 4.24031V3.78093H3.95703V11.9516H7.06419V7.48286C7.06419 6.97924 7.4739 6.5695 7.97755 6.5695C8.48115 6.5695 8.89088 6.97924 8.89088 7.48307L8.89388 11.9516H12.0008V6.35418L11.9933 6.34664ZM6.36106 11.2485H4.66016V4.48408H6.23115V5.48831L6.79377 5.49154L6.8983 5.32926C7.34009 4.64336 8.0927 4.23391 8.91151 4.23391C10.2202 4.23391 11.268 5.23239 11.297 6.507L11.2977 11.2485H9.59654L9.59401 7.48286C9.59401 6.59154 8.86885 5.86638 7.97755 5.86638C7.08622 5.86638 6.36106 6.59154 6.36106 7.48286V11.2485Z" fill="#0029BC"/>
</svg>
