<svg width="81" height="88" viewBox="0 0 81 88" fill="none" xmlns="http://www.w3.org/2000/svg">
<path d="M27.2721 24.2112C27.2952 24.393 27.0543 24.3026 26.9469 24.2855C26.1668 24.164 25.0545 23.7884 24.2634 23.5574C16.0574 21.1533 8.05814 16.8843 2.91908 9.88185L1.39714 7.44057C0.535782 11.7628 1.33791 15.9645 3.922 19.5224C8.09127 25.2646 15.4279 28.6067 22.115 30.4294C24.4632 31.0691 26.9439 31.6545 29.3784 31.7439C29.4014 31.9186 29.1505 31.8383 29.029 31.8433C28.6385 31.8594 28.2168 31.8584 27.8253 31.8423C26.1066 31.772 24.3276 31.5672 22.626 31.3241C14.5204 30.1693 6.61652 27.0933 0.644203 21.3993C0.622116 21.8643 0.830933 22.4216 0.969467 22.8816C4.8446 35.8181 19.5219 39.6562 31.585 38.0695L29.3804 38.6219C21.8721 40.1995 15.6417 39.835 8.36233 37.5714C8.18262 37.5152 7.93867 37.2852 7.81619 37.4148C9.65537 39.4805 11.5909 41.3835 14.0314 42.7402C16.2903 43.9955 19.3492 44.9806 21.9212 45.2849C27.1145 45.8995 32.5648 44.5789 37.5031 43.0907C34.2464 45.3442 30.2638 47.0504 26.3716 47.8608C24.4501 48.2604 22.8378 48.3117 20.9033 48.4121C20.7898 48.4181 20.6282 48.3468 20.6553 48.5115C25.2533 51.5674 31.2296 51.724 36.4008 50.1695C38.3383 49.587 40.1574 48.6852 42.0177 47.911C39.4597 50.767 36.202 53.0958 32.3901 53.8851C36.3696 55.8594 41.0138 54.798 44.7253 52.7313C44.8056 52.8176 44.5285 53.1249 44.4632 53.2213C38.9176 61.3134 27.4579 63.0336 20.8049 70.5051C17.8353 73.8402 16.3746 78.2698 12.9804 81.2494C11.5468 82.5066 9.74171 83.6244 7.81821 83.8644C7.98586 84.1114 8.66852 84.1506 8.96769 84.1686C16.8986 84.6627 20.323 76.0826 25.5785 72.0717C25.6859 71.9894 26.4178 71.4571 26.473 71.5114L24.7513 74.0541C22.5648 78.7458 20.4134 83.787 15.4379 86.1189L12.9342 86.9745L14.177 87.0658C19.9485 86.9644 24.0897 83.4988 27.0171 78.8322C28.5983 76.3126 29.6795 73.5098 31.4073 71.0765C32.5628 69.4487 33.9382 67.9885 35.4521 66.69L35.6006 66.7393C34.3377 68.0207 33.3408 69.7288 32.607 71.3738C31.2727 74.3603 30.7818 77.6562 29.0631 80.4791C27.9528 82.3028 26.4891 83.7268 24.7694 84.966C26.5363 84.716 28.2068 83.9909 29.6745 82.9997C35.961 78.7559 36.2863 69.6907 43.374 66.2894C43.5276 66.3677 43.374 66.4671 43.3278 66.5444C39.9938 72.0576 41.9795 79.4799 48.238 81.6531C44.7584 77.6301 46.3305 72.4654 50.2528 69.4617C53.4252 67.0315 57.48 66.4952 60.8673 64.3231C67.2572 60.2238 70.2268 53.4684 68.2902 45.9618C67.8706 44.3359 67.0835 42.8316 66.5906 41.2359C66.0435 39.4634 65.3186 36.4909 68.221 36.8916C69.2992 37.0402 71.8481 38.0354 72.9625 38.4702C75.7463 39.5568 78.5182 41.5904 79.5311 44.4976C79.8534 44.8069 80.4497 42.9631 80.4868 42.7934C81.0008 40.4546 80.0913 39.0587 79.9327 36.9137C79.8363 35.6092 80.0531 34.2464 80.0401 32.9982C79.9538 24.9543 73.7405 20.4202 66.9179 17.8092C62.6201 16.1643 57.1427 15.2294 54.8568 10.7545C54.6942 10.8429 54.661 11.335 54.654 11.5027C54.4954 15.3348 57.0765 17.9729 59.9728 19.9914C55.418 20.4745 51.5911 23.3596 49.2921 27.2229C44.8387 23.5916 39.267 22.4297 33.9442 20.6974C29.1896 19.1499 24.7071 17.6245 20.4656 14.913C15.2321 11.5669 10.3049 6.592 8.27197 0.611816C5.64874 6.8541 9.64333 13.2832 14.3377 17.2328C17.9999 20.3138 22.7545 22.7139 27.2761 24.2122L27.2721 24.2112Z" fill="url(#paint0_linear_2454_12646)"/>
<path d="M8.27284 0.686859C8.27284 0.686859 1.53162 14.0683 27.193 24.3223C52.8544 34.5763 49.5049 54.1203 49.5049 54.1203C49.5049 54.1203 56.6394 51.1897 57.0699 40.4295C57.5004 29.6693 42.6854 22.148 33.3201 20.4849C23.9549 18.8217 10.2226 9.5248 8.27284 0.686859Z" fill="url(#paint1_linear_2454_12646)"/>
<path d="M44.7343 52.7347C44.7343 52.7347 38.2196 56.7669 32.3968 53.8886C36.2094 53.1002 39.4677 50.7713 42.0262 47.9141C40.1656 48.6884 38.3461 49.5902 36.4082 50.1727C31.237 51.7274 25.2586 51.5707 20.6597 48.5146C20.6326 48.3499 20.7953 48.4212 20.9077 48.4152C22.8427 48.3148 24.4553 48.2636 26.3771 47.8638C30.2701 47.0534 34.2534 45.3471 37.5107 43.0935C32.5715 44.5818 27.1212 45.9015 21.9259 45.2878C19.3534 44.9835 16.2949 43.9993 14.0346 42.743C11.5936 41.3872 9.65668 39.484 7.81815 37.4172C7.94065 37.2877 8.18364 37.5176 8.36438 37.5739C15.6452 39.8375 21.8767 40.2021 29.3865 38.6244L31.5915 38.072C19.5261 39.6588 4.84497 35.8204 0.970108 22.8831C0.832546 22.4231 0.622681 21.8657 0.644772 21.4008C6.61823 27.0951 14.5236 30.1712 22.6308 31.3262C24.3328 31.5692 26.1131 31.7731 27.8311 31.8444C28.2217 31.8605 28.6434 31.8615 29.035 31.8454C29.1565 31.8404 29.4075 31.9207 29.3845 31.746C26.9505 31.6566 24.4693 31.0711 22.1197 30.4314C15.4323 28.6096 8.09428 25.2663 3.9232 19.5237C1.33862 15.9655 0.536327 11.7636 1.39786 7.4411L2.92009 9.88253C8.06014 16.8865 16.0609 21.1547 24.2685 23.559C25.0597 23.791 26.1723 24.1666 26.9525 24.2871C26.9525 24.2871 49.6253 27.9317 53.1257 39.5242C56.626 51.1167 45.3227 59.6673 35.5105 62.7665C25.6984 65.8658 16.575 76.7844 16.575 76.7844C16.575 76.7844 20.4639 65.5765 32.3566 61.1928C43.1508 57.2138 44.7313 52.7347 44.7313 52.7347H44.7343Z" fill="url(#paint2_linear_2454_12646)"/>
<path d="M76.2071 35.0235C76.2071 35.0235 76.5513 31.0331 72.9102 29.4369L69.0113 28.154C69.0113 28.154 70.0728 30.4255 72.0213 30.4914C73.0818 30.5273 73.0246 30.7118 73.0246 30.7118C73.0246 30.7118 71.935 32.9425 73.2544 34.2533C74.5737 35.5641 76.2071 35.0225 76.2071 35.0225V35.0235Z" fill="#012E5B"/>
<defs>
<linearGradient id="paint0_linear_2454_12646" x1="45.8456" y1="7.25579" x2="24.8376" y2="83.6883" gradientUnits="userSpaceOnUse">
<stop stop-color="#118EC4"/>
<stop offset="0.51" stop-color="#004B83"/>
<stop offset="0.97" stop-color="#005892"/>
</linearGradient>
<linearGradient id="paint1_linear_2454_12646" x1="14.0477" y1="4.94815" x2="83.2601" y2="74.4448" gradientUnits="userSpaceOnUse">
<stop stop-color="#118EC4"/>
<stop offset="0.51" stop-color="#004B83"/>
<stop offset="0.97" stop-color="#005892"/>
</linearGradient>
<linearGradient id="paint2_linear_2454_12646" x1="-8.08096" y1="20.5893" x2="41.6732" y2="62.589" gradientUnits="userSpaceOnUse">
<stop stop-color="#118EC4"/>
<stop offset="0.97" stop-color="#005892"/>
</linearGradient>
</defs>
</svg>
