<svg width="41" height="41" viewBox="0 0 41 41" fill="none" xmlns="http://www.w3.org/2000/svg">
<path d="M38.002 21.0001C37.4715 21.0001 36.9628 21.2108 36.5877 21.5859C36.2127 21.961 36.002 22.4697 36.002 23.0001V35.0001C36.002 35.5306 35.7912 36.0393 35.4162 36.4143C35.0411 36.7894 34.5324 37.0001 34.002 37.0001H6.00195C5.47152 37.0001 4.96281 36.7894 4.58774 36.4143C4.21267 36.0393 4.00195 35.5306 4.00195 35.0001V7.00012C4.00195 6.46969 4.21267 5.96098 4.58774 5.58591C4.96281 5.21084 5.47152 5.00012 6.00195 5.00012H18.002C18.5324 5.00012 19.0411 4.78941 19.4162 4.41434C19.7912 4.03926 20.002 3.53056 20.002 3.00012C20.002 2.46969 19.7912 1.96098 19.4162 1.58591C19.0411 1.21084 18.5324 1.00012 18.002 1.00012H6.00195C4.41065 1.00012 2.88453 1.63226 1.75931 2.75748C0.634094 3.8827 0.00195313 5.40882 0.00195312 7.00012V35.0001C0.00195313 36.5914 0.634094 38.1175 1.75931 39.2428C2.88453 40.368 4.41065 41.0001 6.00195 41.0001H34.002C35.5933 41.0001 37.1194 40.368 38.2446 39.2428C39.3698 38.1175 40.002 36.5914 40.002 35.0001V23.0001C40.002 22.4697 39.7912 21.961 39.4162 21.5859C39.0411 21.2108 38.5324 21.0001 38.002 21.0001ZM8.00195 22.5201V31.0001C8.00195 31.5306 8.21267 32.0393 8.58774 32.4143C8.96281 32.7894 9.47152 33.0001 10.002 33.0001H18.482C18.7452 33.0016 19.0061 32.9512 19.2498 32.8517C19.4934 32.7521 19.7151 32.6055 19.902 32.4201L33.742 18.5601L39.422 13.0001C39.6094 12.8142 39.7582 12.593 39.8597 12.3493C39.9613 12.1056 40.0135 11.8441 40.0135 11.5801C40.0135 11.3161 39.9613 11.0547 39.8597 10.811C39.7582 10.5673 39.6094 10.346 39.422 10.1601L30.942 1.58012C30.756 1.39267 30.5348 1.24388 30.2911 1.14234C30.0474 1.0408 29.786 0.988525 29.522 0.988525C29.2579 0.988525 28.9965 1.0408 28.7528 1.14234C28.5091 1.24388 28.2879 1.39267 28.102 1.58012L22.462 7.24012L8.58195 21.1001C8.39659 21.287 8.24994 21.5086 8.15041 21.7523C8.05088 21.996 8.00043 22.2569 8.00195 22.5201ZM29.522 5.82012L35.182 11.4801L32.342 14.3201L26.682 8.66012L29.522 5.82012ZM12.002 23.3401L23.862 11.4801L29.522 17.1401L17.662 29.0001H12.002V23.3401Z" fill="url(#paint0_linear_2454_12865)"/>
<defs>
<linearGradient id="paint0_linear_2454_12865" x1="-6.56245" y1="-4.63811" x2="49.0787" y2="61.3185" gradientUnits="userSpaceOnUse">
<stop stop-color="#000826"/>
<stop offset="0.422616" stop-color="#001971"/>
<stop offset="1" stop-color="#0029BC"/>
</linearGradient>
</defs>
</svg>
