<svg width="35" height="36" viewBox="0 0 35 36" fill="none" xmlns="http://www.w3.org/2000/svg">
<path d="M13.6367 21.5444C14.9116 23.0816 15.9396 24.8097 16.6837 26.6663C16.7748 26.8987 16.8731 27.1279 16.957 27.3629L17.1808 28.079C17.2519 28.3187 17.3354 28.554 17.395 28.7969L17.5591 29.5299C17.6091 29.7751 17.677 30.0159 17.7108 30.2644L17.8122 31.0094L17.8618 31.3815C17.8789 31.5044 17.8955 31.6285 17.904 31.7651C17.9241 32.0329 17.9343 32.3095 17.9274 32.5975C17.9205 33.1152 17.8368 33.629 17.6791 34.1218C17.581 34.4089 17.4499 34.6835 17.2883 34.94C17.1084 35.2134 16.8903 35.4593 16.6407 35.6703L16.623 35.6853C16.4164 35.8596 16.1623 35.9671 15.8938 35.9936C15.6254 36.0201 15.3553 35.9643 15.119 35.8336C14.8827 35.7029 14.6912 35.5033 14.5696 35.2612C14.4481 35.019 14.4023 34.7456 14.4381 34.4768C14.6052 33.2314 14.8427 31.9965 15.1493 30.7782C15.648 28.7413 16.4208 26.7824 17.4462 24.9557C18.497 23.088 19.8702 21.4236 21.5014 20.0402C23.1716 18.6525 25.1005 17.6143 27.1751 16.9866C29.3061 16.3494 31.5593 16.2429 33.7404 16.6763C34.0608 16.7427 34.3527 16.9077 34.5758 17.1482C34.7989 17.3888 34.9422 17.6931 34.9859 18.0192C35.0295 18.3452 34.9714 18.6768 34.8195 18.9681C34.6677 19.2595 34.4295 19.4962 34.1381 19.6456L34.1092 19.6601C33.3994 20.0129 32.6387 20.251 31.8552 20.3659C31.1348 20.4675 30.4062 20.4967 29.6801 20.453C28.9842 20.4184 28.3212 20.3354 27.6839 20.2435C27.0484 20.1495 26.4419 20.0581 25.7836 19.9371C24.8367 19.777 23.91 19.5134 23.02 19.1511C22.5329 18.9454 22.067 18.6921 21.6293 18.3946C21.1823 18.0878 20.7697 17.7333 20.3987 17.3371C19.7099 16.578 19.147 15.7123 18.7318 14.7733C18.3472 13.9058 18.0452 13.0036 17.8301 12.0788C16.9618 8.49499 17.0352 4.7457 18.043 1.19901L18.0444 1.19381C18.1326 0.884695 18.3088 0.608274 18.5513 0.398594C18.7938 0.188913 19.0919 0.0551309 19.409 0.0137234C19.7262 -0.0276842 20.0484 0.0250919 20.3361 0.165551C20.6237 0.306011 20.8643 0.52802 21.0281 0.804233C21.5416 1.70138 21.8195 2.71522 21.8357 3.75024C21.8524 4.65758 21.7407 5.56269 21.504 6.43843C21.3994 6.861 21.2638 7.25165 21.1346 7.64652C20.9903 8.03598 20.8496 8.42746 20.6783 8.80513C20.3514 9.56642 19.9681 10.3019 19.5315 11.0054C17.7963 13.8464 15.2811 16.1221 12.2891 17.5581C10.3856 18.4554 8.31857 18.9484 6.21713 19.0062C5.39259 19.035 4.56925 18.9213 3.78295 18.6701C3.62347 18.6164 3.47437 18.561 3.3353 18.5026C3.19661 18.4385 3.06784 18.373 2.94897 18.3062C2.73139 18.1892 2.52897 18.0457 2.34629 17.8789C1.86572 17.4434 1.95699 17.0929 2.43434 16.8637C2.91353 16.6395 3.77925 16.521 4.95545 16.4023L5.51898 16.3411L6.0892 16.2645C6.47075 16.206 6.8574 16.1572 7.24247 16.0846C8.01121 15.9479 8.77115 15.7652 9.51825 15.5375C10.96 15.0866 12.3135 14.3888 13.5192 13.4749C15.9558 11.6331 17.7256 9.03946 18.558 6.09056C18.7567 5.41868 18.8576 4.72137 18.8574 4.02039C18.8662 3.44186 18.7118 2.87267 18.4119 2.37887L20.9749 2.03992C20.7139 3.08321 20.5507 4.14882 20.4876 5.22275C20.3655 7.2056 20.6343 9.24448 20.9739 11.1179C21.2091 12.453 21.621 13.7169 22.2904 14.6885C22.6057 15.1557 23.0052 15.5594 23.4682 15.8788C23.9733 16.2016 24.5234 16.4469 25.1004 16.6065C25.7584 16.7893 26.4267 16.9322 27.1018 17.0343C27.821 17.1512 28.537 17.2685 29.2107 17.3377C30.5659 17.4844 31.8143 17.4288 32.7686 16.9584L33.0984 19.6262L32.6252 19.5358L32.3889 19.4889L32.149 19.4605L31.669 19.402L31.1842 19.3775C30.082 19.3354 28.98 19.4652 27.9174 19.7624C26.8354 20.0677 25.7981 20.5147 24.832 21.0918C23.8598 21.6699 22.9624 22.3667 22.1602 23.1664C21.3503 23.9781 20.6309 24.8764 20.0148 25.8451C18.3233 28.4734 17.3256 31.5856 16.9113 34.7664L15.0398 33.7523C15.1514 33.6578 15.2358 33.5349 15.2842 33.3965C15.3621 33.1808 15.4066 32.9545 15.4159 32.7253C15.4307 32.4405 15.4232 32.1549 15.3935 31.8713L15.259 30.9225C15.2129 30.6056 15.1491 30.2915 15.068 29.9818L14.9609 29.5128C14.9283 29.3554 14.8671 29.2058 14.8219 29.0517C14.7205 28.7468 14.6341 28.4363 14.522 28.1346L14.1545 27.2398C13.6221 26.0575 12.96 24.9386 12.1807 23.9039C11.3829 22.8762 10.4799 21.9356 9.48668 21.0975C8.23238 20.0662 6.86715 19.1794 5.41653 18.4537C5.32932 18.4078 5.2436 18.3583 5.15576 18.3148L4.88825 18.1965L4.35655 17.9544C4.00736 17.7761 3.64378 17.6577 3.2874 17.5135L2.75326 17.2991C2.5784 17.2358 2.40512 17.1789 2.23079 17.1345C1.8864 17.0267 1.5178 17.0251 1.17251 17.1299C1.08804 17.1624 1.01122 17.2023 0.950529 17.2299C0.949266 17.2305 0.948128 17.2313 0.94718 17.2323C0.946233 17.2333 0.945497 17.2345 0.945012 17.2358L0.938015 17.2555C0.915182 17.327 0.92007 17.4045 0.951703 17.4725C0.98031 17.5349 1.02129 17.5908 1.07213 17.6367C1.16399 17.7192 1.27893 17.7713 1.40127 17.7857C1.45911 17.7935 1.51794 17.789 1.5739 17.7723C1.62393 17.7626 1.67319 17.7492 1.72129 17.7323C1.80235 17.7015 1.86146 17.6821 1.89499 17.7038C1.92746 17.7241 1.93711 17.7882 1.88925 17.8976C1.85422 17.9644 1.80762 18.0244 1.75163 18.0748C1.68436 18.1557 1.5968 18.217 1.49803 18.2524C1.26121 18.3487 0.998029 18.3573 0.755499 18.2765C0.576131 18.2168 0.415184 18.1114 0.288291 17.9706C0.197229 17.8684 0.125364 17.7505 0.0761972 17.6225C0.0198197 17.4707 -0.00572545 17.3091 0.00107371 17.1473C0.0057218 17.0245 0.0454719 16.9056 0.115556 16.8049L0.291375 16.5515C0.383498 16.4183 0.491472 16.2968 0.612885 16.1899C0.680614 16.1304 0.752565 16.0759 0.828168 16.0268C0.908712 15.9813 0.992271 15.9414 1.07826 15.9074C1.48468 15.7521 1.91701 15.6769 2.35168 15.6858C2.69134 15.6873 3.03028 15.7172 3.365 15.7753L4.28528 15.9226L4.51679 15.9626L4.74366 16.0203L5.19896 16.1383C6.42643 16.4592 7.61182 16.9251 8.73041 17.5261C10.5781 18.5664 12.2239 19.9334 13.5886 21.5616C13.6041 21.5559 13.6186 21.5508 13.6367 21.5444Z" fill="url(#paint0_linear_2798_3883)"/>
<defs>
<linearGradient id="paint0_linear_2798_3883" x1="17.5" y1="0" x2="17.5" y2="36" gradientUnits="userSpaceOnUse">
<stop stop-color="#E5E9FF"/>
<stop offset="0.567308" stop-color="#0029BC" stop-opacity="0.7"/>
<stop offset="1" stop-color="#E5E9FF"/>
</linearGradient>
</defs>
</svg>
