<svg width="32" height="32" viewBox="0 0 32 32" fill="none" xmlns="http://www.w3.org/2000/svg">
<path d="M25.3337 2.66663H6.66699C4.40033 2.66663 2.66699 4.39996 2.66699 6.66663V25.3333C2.66699 27.6 4.40033 29.3333 6.66699 29.3333H25.3337C27.6003 29.3333 29.3337 27.6 29.3337 25.3333V6.66663C29.3337 4.39996 27.6003 2.66663 25.3337 2.66663ZM10.667 22.6666C10.667 23.4666 10.1337 24 9.33366 24C8.53366 24 8.00033 23.4666 8.00033 22.6666V17.3333C8.00033 16.5333 8.53366 16 9.33366 16C10.1337 16 10.667 16.5333 10.667 17.3333V22.6666ZM17.3337 22.6666C17.3337 23.4666 16.8003 24 16.0003 24C15.2003 24 14.667 23.4666 14.667 22.6666V9.33329C14.667 8.53329 15.2003 7.99996 16.0003 7.99996C16.8003 7.99996 17.3337 8.53329 17.3337 9.33329V22.6666ZM24.0003 22.6666C24.0003 23.4666 23.467 24 22.667 24C21.867 24 21.3337 23.4666 21.3337 22.6666V14.6666C21.3337 13.8666 21.867 13.3333 22.667 13.3333C23.467 13.3333 24.0003 13.8666 24.0003 14.6666V22.6666Z" fill="#F8F8F6"/>
</svg>
