<svg width="32" height="32" viewBox="0 0 32 32" fill="none" xmlns="http://www.w3.org/2000/svg">
<path d="M18.9091 11.6364H13.0909C12.7051 11.6364 12.3352 11.7896 12.0624 12.0624C11.7896 12.3352 11.6364 12.7051 11.6364 13.0909V30.5455C11.6364 30.9312 11.7896 31.3012 12.0624 31.574C12.3352 31.8468 12.7051 32 13.0909 32H18.9091C19.2949 32 19.6648 31.8468 19.9376 31.574C20.2104 31.3012 20.3636 30.9312 20.3636 30.5455V13.0909C20.3636 12.7051 20.2104 12.3352 19.9376 12.0624C19.6648 11.7896 19.2949 11.6364 18.9091 11.6364ZM17.4545 29.0909H14.5455V14.5455H17.4545V29.0909ZM30.5455 0H24.7273C24.3415 0 23.9715 0.153246 23.6988 0.426026C23.426 0.698807 23.2727 1.06878 23.2727 1.45455V30.5455C23.2727 30.9312 23.426 31.3012 23.6988 31.574C23.9715 31.8468 24.3415 32 24.7273 32H30.5455C30.9312 32 31.3012 31.8468 31.574 31.574C31.8468 31.3012 32 30.9312 32 30.5455V1.45455C32 1.06878 31.8468 0.698807 31.574 0.426026C31.3012 0.153246 30.9312 0 30.5455 0ZM29.0909 29.0909H26.1818V2.90909H29.0909V29.0909ZM7.27273 20.3636H1.45455C1.06878 20.3636 0.698807 20.5169 0.426026 20.7897C0.153246 21.0624 0 21.4324 0 21.8182V30.5455C0 30.9312 0.153246 31.3012 0.426026 31.574C0.698807 31.8468 1.06878 32 1.45455 32H7.27273C7.6585 32 8.02847 31.8468 8.30125 31.574C8.57403 31.3012 8.72727 30.9312 8.72727 30.5455V21.8182C8.72727 21.4324 8.57403 21.0624 8.30125 20.7897C8.02847 20.5169 7.6585 20.3636 7.27273 20.3636ZM5.81818 29.0909H2.90909V23.2727H5.81818V29.0909Z" fill="#F8F8F6"/>
</svg>
