<svg width="28" height="28" viewBox="0 0 28 28" fill="none" xmlns="http://www.w3.org/2000/svg">
<path d="M26.0003 24.6666H24.667V4.66663C24.667 4.313 24.5265 3.97387 24.2765 3.72382C24.0264 3.47377 23.6873 3.33329 23.3337 3.33329C22.98 3.33329 22.6409 3.47377 22.3908 3.72382C22.1408 3.97387 22.0003 4.313 22.0003 4.66663V24.6666H19.3337V15.3333C19.3337 14.9797 19.1932 14.6405 18.9431 14.3905C18.6931 14.1404 18.3539 14 18.0003 14C17.6467 14 17.3076 14.1404 17.0575 14.3905C16.8075 14.6405 16.667 14.9797 16.667 15.3333V24.6666H14.0003V9.99996C14.0003 9.64634 13.8598 9.3072 13.6098 9.05715C13.3598 8.8071 13.0206 8.66663 12.667 8.66663C12.3134 8.66663 11.9742 8.8071 11.7242 9.05715C11.4741 9.3072 11.3337 9.64634 11.3337 9.99996V24.6666H8.66699V20.6666C8.66699 20.313 8.52652 19.9739 8.27647 19.7238C8.02642 19.4738 7.68728 19.3333 7.33366 19.3333C6.98004 19.3333 6.6409 19.4738 6.39085 19.7238C6.1408 19.9739 6.00033 20.313 6.00033 20.6666V24.6666H3.33366V1.99996C3.33366 1.64634 3.19318 1.3072 2.94313 1.05715C2.69309 0.807102 2.35395 0.666626 2.00033 0.666626C1.6467 0.666626 1.30756 0.807102 1.05752 1.05715C0.807468 1.3072 0.666992 1.64634 0.666992 1.99996V26C0.666992 26.3536 0.807468 26.6927 1.05752 26.9428C1.30756 27.1928 1.6467 27.3333 2.00033 27.3333H26.0003C26.3539 27.3333 26.6931 27.1928 26.9431 26.9428C27.1932 26.6927 27.3337 26.3536 27.3337 26C27.3337 25.6463 27.1932 25.3072 26.9431 25.0571C26.6931 24.8071 26.3539 24.6666 26.0003 24.6666Z" fill="#F8F8F6"/>
</svg>
