<svg width="360" height="104" viewBox="0 0 360 104" fill="none" xmlns="http://www.w3.org/2000/svg">
<path d="M360 87.9993C360 95.5417 360 99.313 357.657 101.656C355.314 103.999 351.542 103.999 344 103.999H16C8.45753 103.999 4.68629 103.999 2.34315 101.656C0 99.313 0 95.5417 0 87.9993V15.9993C0 8.45679 0 4.68556 2.34315 2.34241C4.68629 -0.000732422 8.45753 -0.000732422 16 -0.000732422H299.608C301.35 -0.000732422 302.221 -0.000732422 303.184 0.241986C304.147 0.484704 308.24 2.68868 316.427 7.09663C318.681 8.31048 321.26 8.99927 324 8.99927C327.344 8.99927 330.449 7.97316 333.016 6.21865C338.16 2.70286 340.732 0.944967 341.466 0.634003C342.395 0.239888 342.021 0.355432 343.011 0.156348C343.792 -0.000732422 344.762 -0.000732422 346.703 -0.000732422C351.653 -0.000732422 354.128 -0.000732422 355.975 1.05697C357.211 1.76434 358.235 2.78851 358.942 4.02379C360 5.87082 360 8.34608 360 13.2966V87.9993Z" fill="url(#paint0_linear_2798_2787)"/>
<path d="M360 87.9993C360 95.5417 360 99.313 357.657 101.656C355.314 103.999 351.542 103.999 344 103.999H16C8.45753 103.999 4.68629 103.999 2.34315 101.656C0 99.313 0 95.5417 0 87.9993V15.9993C0 8.45679 0 4.68556 2.34315 2.34241C4.68629 -0.000732422 8.45753 -0.000732422 16 -0.000732422H299.608C301.35 -0.000732422 302.221 -0.000732422 303.184 0.241986C304.147 0.484704 308.24 2.68868 316.427 7.09663C318.681 8.31048 321.26 8.99927 324 8.99927C327.344 8.99927 330.449 7.97316 333.016 6.21865C338.16 2.70286 340.732 0.944967 341.466 0.634003C342.395 0.239888 342.021 0.355432 343.011 0.156348C343.792 -0.000732422 344.762 -0.000732422 346.703 -0.000732422C351.653 -0.000732422 354.128 -0.000732422 355.975 1.05697C357.211 1.76434 358.235 2.78851 358.942 4.02379C360 5.87082 360 8.34608 360 13.2966V87.9993Z" fill="url(#paint1_linear_2798_2787)" fill-opacity="0.4"/>
<defs>
<linearGradient id="paint0_linear_2798_2787" x1="359.298" y1="106.221" x2="29.3911" y2="-67.9764" gradientUnits="userSpaceOnUse">
<stop stop-color="#E5EBFF"/>
<stop offset="0.555004" stop-color="#DAE2FC"/>
<stop offset="1" stop-color="#CED8F8"/>
</linearGradient>
<linearGradient id="paint1_linear_2798_2787" x1="184.5" y1="-0.000732243" x2="185" y2="62.4993" gradientUnits="userSpaceOnUse">
<stop stop-color="white" stop-opacity="0.2"/>
<stop offset="1" stop-color="white"/>
</linearGradient>
</defs>
</svg>
