<svg width="12" height="12" viewBox="0 0 12 12" fill="none" xmlns="http://www.w3.org/2000/svg">
<path d="M9.66034 11.3667C9.56661 11.3667 9.47351 11.339 9.39364 11.2849L6.37637 9.23816L4.75807 10.4026C4.63115 10.4939 4.46756 10.5169 4.32018 10.4642C4.173 10.4114 4.06121 10.2894 4.02131 10.1383L3.20874 7.05886L0.305342 5.94868C0.122561 5.87876 0.00134106 5.7039 1.10522e-05 5.5082C-0.00131895 5.3125 0.117495 5.13599 0.299389 5.0636L11.3392 0.67078C11.3893 0.6495 11.4423 0.637213 11.4957 0.63392C11.5149 0.63278 11.5341 0.63278 11.5531 0.633856C11.6638 0.640443 11.7726 0.685537 11.8574 0.768757C11.8662 0.77737 11.8746 0.786174 11.8825 0.795357C11.9528 0.875664 11.9915 0.973578 11.9987 1.07333C12.0005 1.09841 12.0004 1.1238 11.9982 1.1492C11.9967 1.16731 11.9941 1.18537 11.9904 1.20329L10.1269 10.9807C10.097 11.1377 9.99006 11.2692 9.84236 11.3305C9.78378 11.3548 9.7219 11.3667 9.66034 11.3667ZM6.64129 8.26992L9.32898 10.093L10.7789 2.4851L5.54208 7.52429L6.62863 8.26137C6.633 8.26409 6.63718 8.26701 6.64129 8.26992ZM4.40391 7.86452L4.76377 9.22809L5.5391 8.67019L4.52386 7.9815C4.47668 7.94958 4.43627 7.90981 4.40391 7.86452ZM1.78196 5.4961L3.77558 6.25832C3.91839 6.31291 4.02619 6.43299 4.0652 6.58081L4.31803 7.53899C4.32962 7.42847 4.37972 7.32448 4.4611 7.24613L9.45109 2.44456L1.78196 5.4961Z" fill="#0029BC"/>
</svg>
