<svg width="14" height="13" viewBox="0 0 14 13" fill="none" xmlns="http://www.w3.org/2000/svg">
<path d="M11.2638 2.42969C12.4122 3.57812 13.1232 5.08203 13.1232 6.72266C13.1232 10.0586 10.3341 12.793 6.97083 12.793C5.95911 12.793 4.97474 12.5195 4.0724 12.0547L0.873177 12.875L1.72083 9.73047C1.2013 8.82812 0.900521 7.78906 0.900521 6.69531C0.900521 3.35938 3.6349 0.625 6.97083 0.625C8.61146 0.625 10.1427 1.28125 11.2638 2.42969ZM6.97083 11.7539C9.7599 11.7539 12.0841 9.48438 12.0841 6.72266C12.0841 5.35547 11.5099 4.09766 10.5529 3.14062C9.59583 2.18359 8.33802 1.66406 6.99818 1.66406C4.20911 1.66406 1.93958 3.93359 1.93958 6.69531C1.93958 7.65234 2.21302 8.58203 2.70521 9.40234L2.84193 9.59375L2.3224 11.4531L4.23646 10.9336L4.40052 11.043C5.19349 11.5078 6.06849 11.7539 6.97083 11.7539ZM9.7599 7.98047C9.89661 8.0625 10.006 8.08984 10.0333 8.17188C10.088 8.22656 10.088 8.52734 9.9513 8.88281C9.81458 9.23828 9.21302 9.56641 8.93958 9.59375C8.4474 9.67578 8.06458 9.64844 7.10755 9.21094C5.5763 8.55469 4.59193 7.02344 4.5099 6.94141C4.42786 6.83203 3.90833 6.12109 3.90833 5.35547C3.90833 4.61719 4.29115 4.26172 4.42786 4.09766C4.56458 3.93359 4.72865 3.90625 4.83802 3.90625C4.92005 3.90625 5.02943 3.90625 5.11146 3.90625C5.22083 3.90625 5.33021 3.87891 5.46693 4.17969C5.5763 4.48047 5.90443 5.21875 5.93177 5.30078C5.95911 5.38281 5.98646 5.46484 5.93177 5.57422C5.65833 6.14844 5.33021 6.12109 5.49427 6.39453C6.09583 7.40625 6.67005 7.76172 7.5724 8.19922C7.70911 8.28125 7.79115 8.25391 7.90052 8.17188C7.98255 8.0625 8.28333 7.70703 8.36536 7.57031C8.47474 7.40625 8.58411 7.43359 8.72083 7.48828C8.85755 7.54297 9.59583 7.89844 9.7599 7.98047Z" fill="#0029BC"/>
</svg>
