<svg width="225" height="293" viewBox="0 0 225 293" fill="none" xmlns="http://www.w3.org/2000/svg">
<path opacity="0.5" d="M61.8365 258.413C61.8365 258.413 96.1463 260.617 113.224 238.087C96.4387 242.736 78.624 240.454 62.4797 234.775C71.4878 233.978 80.5998 233.746 89.5127 232.07C113.296 227.598 136.697 215.042 148.544 194.29C148.306 193.613 147.81 194.208 147.351 194.41C139.46 197.902 132.953 200.936 124.487 203.271C107.336 207.998 87.9495 209.52 70.2966 207.52C93.0208 203.262 117.42 197.343 136.754 184.628C146.326 178.33 156.403 168.49 162.74 159.219C169.586 149.21 173.285 138.141 176.249 126.651C175.492 126.406 175.009 127.762 174.41 128.336C150.257 151.461 126.288 165.308 93.1739 174.372L83.2641 176.697C134.479 158.551 184.703 114.666 172.962 58.0169C172.544 56.0032 172.208 53.4767 171.146 51.7635C159.374 85.2381 134.445 112.683 104.689 133.271C98.4428 137.595 91.8041 141.928 85.1345 145.636C83.6179 146.478 81.9461 147.326 80.3582 148.048C79.8654 148.273 79.0375 149.079 78.7628 148.372C88.236 143.164 96.8565 135.986 104.841 128.866C127.565 108.599 149.682 81.2798 154.199 51.2297C156.998 32.6098 151.374 15.1233 138.894 0.510725L137.97 12.784C132.251 49.5405 109.443 81.6819 81.9061 107.192C79.252 109.653 75.6236 113.298 72.7796 115.315C72.7796 115.315 -9.57033 174.459 0.837826 225.276C11.246 276.094 74.0338 285.792 119.476 277.871C164.918 269.95 224.018 292.96 224.018 292.96C224.018 292.96 185.087 258.382 128.695 265.612C77.5109 272.173 61.8484 258.407 61.8484 258.407L61.8365 258.413Z" fill="url(#paint0_linear_4186_23994)"/>
<defs>
<linearGradient id="paint0_linear_4186_23994" x1="204.078" y1="31.2361" x2="103.629" y2="292.98" gradientUnits="userSpaceOnUse">
<stop stop-color="#118EC4"/>
<stop offset="0.97" stop-color="#005892"/>
</linearGradient>
</defs>
</svg>
