<svg width="135" height="134" viewBox="0 0 135 134" fill="none" xmlns="http://www.w3.org/2000/svg">
<path d="M121.211 24.7012C121.211 24.7012 120.354 38.8487 110.94 47.9709C101.526 57.0931 92.5368 60.5428 92.5368 60.5428L84.3747 68.7008L104.97 67.6831L124.143 32.397L121.213 24.7009L121.211 24.7012Z" fill="#928DAB"/>
<path d="M128.031 52.007C128.031 52.007 119.887 65.1627 106.669 68.3918C93.4514 71.6225 84.7398 73.1335 84.7398 73.1335L85.9641 78.4207L117.224 71.1837L123.014 63.0867L127.77 54.3864L128.029 52.0089L128.031 52.007Z" fill="#928DAB"/>
<path d="M121.66 78.0648C121.66 78.0648 110.129 85.521 97.5922 83.5391C85.0559 81.5571 79.4056 83.5311 79.4056 83.5311L84.17 88.2169L110.421 87.7855L117.437 82.1453L121.658 78.0634L121.66 78.0648Z" fill="#928DAB"/>
<path d="M106.31 97.8061C106.31 97.8061 95.3446 99.0759 87.3053 94.4316C79.2677 89.7853 77.1638 90.6867 77.1638 90.6867L75.7163 93.5653L80.8707 97.6604L101.692 101.108L103.176 99.9102L106.308 97.8064L106.31 97.8061Z" fill="#928DAB"/>
<path d="M88.1211 108.921C88.1211 108.921 80.1297 106.868 77.7561 102.394C75.3825 97.9198 73.6775 96.6813 73.6775 96.6813L69.4629 96.2134L71.8923 102.271L76.1728 107.707L79.8636 109.642L85.386 109.684L88.123 108.921L88.1211 108.921Z" fill="#928DAB"/>
<path d="M57.6109 84.6318C57.6109 84.6318 63.7981 89.1089 69.6658 79.9952C69.6658 79.9952 71.5704 77.7236 71.9108 70.6869C72.2512 63.6503 83.9775 56.7378 83.9775 56.7378C83.9775 56.7378 115.161 36.5429 104.013 10.4938C104.013 10.4938 116.772 15.7116 116.069 33.9007C116.069 33.9007 115.975 40.5902 110.73 47.5788C110.73 47.5788 102.281 59.7559 87.8114 66.8943C87.8114 66.8943 125.231 51.2738 121.211 24.7C121.211 24.7 135.126 40.796 118.592 58.9085C118.592 58.9085 108.083 71.7265 86.9544 75.6761C86.9544 75.6761 119.512 73.7506 128.031 52.0052C128.031 52.0052 130.127 66.0403 117.442 75.6618C117.442 75.6618 106.849 85.9062 84.232 83.6312C84.232 83.6312 105.469 91.3355 121.662 78.0625C121.662 78.0625 115.446 93.874 95.0505 95.1015C95.0505 95.1015 87.9342 95.7092 78.4807 91.7003C78.4807 91.7003 93.5588 102.723 106.31 97.8045C106.31 97.8045 97.6321 106.161 85.0697 104.745C85.0697 104.745 79.6204 105.142 72.0503 98.1053C72.0503 98.1053 75.5221 107.145 88.1216 108.919C88.1216 108.919 78.2213 115.5 66.1578 106.144C54.0943 96.7867 57.6126 84.6299 57.6126 84.6299L57.6109 84.6318Z" fill="url(#paint0_linear_2798_4120)"/>
<path d="M104.014 10.495C109.676 18.9651 109.033 30.0757 104.869 39.6549C103.116 43.6982 100.806 47.5914 98.0521 51.2496C97.4872 51.9786 96.8806 52.6853 96.2419 53.3681C95.1545 54.5694 93.3616 56.1135 92.136 57.2361C89.6673 59.4467 86.1786 62.5962 83.68 64.7268C82.2804 65.9774 80.7388 67.1127 79.3563 68.3759C75.9355 71.5726 73.9865 75.7913 73.6222 79.9559C73.5473 80.7928 73.52 81.631 73.5998 82.4578C73.4091 80.8089 73.5522 79.1106 73.9092 77.4406C74.6261 74.0917 76.3982 70.8084 79.1333 68.2019C80.5079 66.9196 82.0285 65.7723 83.416 64.4998C85.8577 62.3525 89.3442 59.1627 91.7937 56.9568C93.8103 55.1383 96.0497 53.1302 97.6162 51.0184C104.635 41.6427 109.147 30.4338 107.384 19.7496C106.854 16.4997 105.84 13.2934 104.014 10.495Z" fill="#8FBEDA"/>
<path d="M73.2047 25.0048C73.2047 25.0048 75.6894 29.8891 76.5241 36.346C77.0259 40.2202 75.9882 47.2709 74.4089 51.5627C70.2018 63.0079 64.4684 66.8001 64.4684 66.8001L60.9469 76.9376L79.736 68.2006L79.8484 30.5097L73.2064 25.0038L73.2047 25.0048Z" fill="#928DAB"/>
<path d="M93.4199 45.9028C93.4199 45.9028 92.4445 60.3353 81.6894 68.16C70.9353 75.9859 63.5344 80.6117 63.5344 80.6117L67.3579 84.6953L92.996 66.5343L94.3248 57.3549L94.379 48.0508L93.4199 45.9028Z" fill="#928DAB"/>
<path d="M100.639 70.7635C100.639 70.7635 93.6032 81.5832 80.8494 84.6623C68.0955 87.7414 63.7984 91.5973 63.7984 91.5973L70.6359 93.812L95.0231 83.4209L98.7448 75.888L100.636 70.7632L100.639 70.7635Z" fill="#928DAB"/>
<path d="M96.242 93.6157C96.242 93.6157 86.6063 98.8941 76.7202 97.9652C66.8346 97.0338 65.3188 98.6128 65.3188 98.6128L65.4189 101.643L72.323 103.2L93.5845 98.2202L94.3693 96.6231L96.2403 93.6167L96.242 93.6157Z" fill="#928DAB"/>
<path d="M84.8178 110.126C84.8178 110.126 76.288 111.409 71.7987 108.464C67.3094 105.519 65.0844 105.104 65.0844 105.104L60.897 106.31L66.24 110.596L73.0038 113.641L77.4427 113.898L82.6401 111.826L84.8194 110.125L84.8178 110.126Z" fill="#928DAB"/>
<path d="M43.9253 100.865C43.9253 100.865 51.9909 102.357 52.8781 92.2724C52.8781 92.2724 53.5136 89.5901 50.2711 83.4034C47.0286 77.2167 54.5215 66.7909 54.5215 66.7909C54.5215 66.7909 73.5292 37.5056 49.8956 19.339C49.8956 19.339 64.4964 18.9599 73.0434 34.8845C73.0434 34.8845 76.3406 40.6787 74.9618 48.6959C74.9618 48.6959 73.2057 62.4023 63.2557 74.0697C63.2557 74.0697 90.4247 46.3412 73.2057 25.0026C73.2057 25.0026 94.3957 33.5459 88.0651 55.4471C88.0651 55.4471 84.7025 70.4915 66.8971 81.9557C66.8971 81.9557 96.4399 67.8712 93.4188 45.9022C93.4188 45.9022 102.487 57.1829 95.4669 70.3064C95.4669 70.3064 90.7233 83.1674 68.3718 89.8422C68.3718 89.8422 92.1776 88.3674 100.637 70.7621C100.637 70.7621 102.814 86.7442 84.3178 95.5859C84.3178 95.5859 77.955 98.8252 67.065 98.9829C67.065 98.9829 86.7773 102.716 96.2395 93.6149C96.2395 93.6149 92.3354 104.12 79.8434 107.696C79.8434 107.696 74.9367 110.118 64.2794 106.951C64.2794 106.951 72.1088 113.406 84.8168 110.124C84.8168 110.124 78.8679 119.568 62.8246 116.119C46.7812 112.669 43.926 100.862 43.926 100.862L43.9253 100.865Z" fill="url(#paint1_linear_2798_4120)"/>
<path d="M49.8973 19.3399C53.0247 21.0518 55.5967 23.4255 57.7409 26.0171C64.8003 34.5409 66.244 45.9095 64.4112 56.6601C64.0141 59.0724 62.9278 61.6637 61.9592 63.994C60.7718 66.8364 59.1319 70.889 57.9243 73.6844C57.2669 75.3079 56.4232 76.8772 55.7838 78.5057C54.5394 81.7932 54.5401 85.2957 55.5631 88.4519C56.0728 90.0242 56.7981 91.5406 57.8125 92.8886C57.3192 92.2073 56.9206 91.4754 56.5671 90.7265C54.8008 87.0028 54.4934 82.629 56.0809 78.5704C56.7374 76.9553 57.6061 75.3907 58.285 73.78C59.5424 71.0099 61.2327 66.9411 62.4198 64.1047C63.0014 62.6622 63.8974 60.6643 64.3107 59.2082C64.5627 58.3753 64.7746 57.5369 64.9351 56.6937C65.6661 52.4951 65.8591 48.2633 65.4559 44.1118C64.5116 34.2785 59.4899 24.4682 49.8973 19.3399Z" fill="#8FBEDA"/>
<defs>
<linearGradient id="paint0_linear_2798_4120" x1="54.7174" y1="66.5926" x2="128.753" y2="58.9149" gradientUnits="userSpaceOnUse">
<stop offset="0.23" stop-color="#0B334C"/>
<stop offset="0.48" stop-color="#0C354E"/>
<stop offset="0.62" stop-color="#113B56"/>
<stop offset="0.73" stop-color="#194764"/>
<stop offset="0.82" stop-color="#255877"/>
<stop offset="0.91" stop-color="#356E90"/>
<stop offset="0.99" stop-color="#4889AF"/>
<stop offset="1" stop-color="#4B8DB4"/>
</linearGradient>
<linearGradient id="paint1_linear_2798_4120" x1="3.23445" y1="47.1784" x2="62.4155" y2="3.69592" gradientUnits="userSpaceOnUse">
<stop offset="0.23" stop-color="#0B334C"/>
<stop offset="0.48" stop-color="#0C354E"/>
<stop offset="0.62" stop-color="#113B56"/>
<stop offset="0.73" stop-color="#194764"/>
<stop offset="0.82" stop-color="#255877"/>
<stop offset="0.91" stop-color="#356E90"/>
<stop offset="0.99" stop-color="#4889AF"/>
<stop offset="1" stop-color="#4B8DB4"/>
</linearGradient>
</defs>
</svg>
