<svg width="12" height="12" viewBox="0 0 12 12" fill="none" xmlns="http://www.w3.org/2000/svg">
<path d="M6.00001 10.6876C4.47312 10.6876 3.13312 10.5878 2.27786 10.5041C1.19515 10.3981 0.332549 9.57239 0.180129 8.49615C-0.0600431 6.7915 -0.0600431 5.20834 0.180129 3.50367C0.332549 2.42745 1.19515 1.60174 2.27786 1.49578C3.1331 1.41206 4.47312 1.31226 6.00001 1.31226C7.5269 1.31226 8.86689 1.41206 9.72215 1.49578C10.8049 1.60174 11.6675 2.42745 11.8199 3.50369C12.0601 5.20834 12.0601 6.7915 11.8199 8.49617C11.6675 9.57239 10.8049 10.3981 9.72215 10.5041C8.86689 10.5878 7.5269 10.6876 6.00001 10.6876ZM6.00001 2.24979C4.51097 2.24979 3.20367 2.34715 2.3692 2.42888C1.71841 2.49259 1.19998 2.98861 1.10843 3.63513C0.994892 4.43682 0.937328 5.23243 0.937328 5.99994C0.937328 6.76746 0.994892 7.56305 1.10843 8.36473C1.19998 9.01128 1.71841 9.5073 2.3692 9.57101C3.2037 9.65271 4.51097 9.7501 6.00001 9.7501C7.48904 9.7501 8.79634 9.65274 9.63081 9.57101C10.2816 9.5073 10.8 9.01128 10.8916 8.36475C11.0051 7.56307 11.0627 6.76746 11.0627 5.99994C11.0627 5.23243 11.0051 4.43684 10.8916 3.63516C10.8 2.98861 10.2816 2.49259 9.63081 2.42888C8.79634 2.34715 7.48904 2.24979 6.00001 2.24979ZM5.39195 8.22178C4.7652 8.23031 4.20402 7.68682 4.21869 7.05265V4.93547C4.21869 4.51147 4.43955 4.13273 4.8095 3.92235C5.18236 3.71028 5.62506 3.71464 5.99358 3.93388L7.77288 4.99247C8.52999 5.42685 8.5298 6.56139 7.77288 6.99563L5.99358 8.05422C5.80594 8.16586 5.59902 8.22178 5.39195 8.22178ZM5.39305 4.70502C5.33837 4.70502 5.29486 4.7249 5.27297 4.73735C5.22938 4.76214 5.15625 4.82083 5.15625 4.93547V7.05265C5.15625 7.16731 5.22938 7.226 5.27297 7.25078C5.30947 7.27154 5.40601 7.31291 5.51425 7.24848L7.29354 6.18989C7.44503 6.09946 7.44524 5.88882 7.29354 5.79821L5.51425 4.73962C5.47093 4.71386 5.42949 4.70502 5.39305 4.70502Z" fill="#0029BC"/>
</svg>
