<svg width="42" height="41" viewBox="0 0 42 41" fill="none" xmlns="http://www.w3.org/2000/svg">
<g clip-path="url(#clip0_2454_12836)">
<g filter="url(#filter0_di_2454_12836)">
<path d="M6.58067 17.6C6.25463 17.9275 6.05204 18.3577 6.00732 18.8176C5.96261 19.2776 6.07854 19.7388 6.33541 20.1229C6.59228 20.507 6.97423 20.7904 7.41636 20.9247C7.85848 21.0591 8.3335 21.0362 8.76067 20.86C9.00374 20.7513 9.22683 20.6026 9.42067 20.42C9.60057 20.2357 9.74318 20.0184 9.84067 19.78C9.955 19.5363 10.0098 19.269 10.0007 19C9.99846 18.4753 9.79016 17.9725 9.42067 17.6C9.23474 17.4125 9.01354 17.2638 8.76982 17.1622C8.52611 17.0607 8.26469 17.0084 8.00067 17.0084C7.73665 17.0084 7.47524 17.0607 7.23152 17.1622C6.9878 17.2638 6.7666 17.4125 6.58067 17.6ZM8.00067 7C8.5311 7 9.03981 7.21071 9.41488 7.58579C9.78996 7.96086 10.0007 8.46957 10.0007 9C10.0007 9.53043 9.78996 10.0391 9.41488 10.4142C9.03981 10.7893 8.5311 11 8.00067 11C7.47024 11 6.96153 11.2107 6.58646 11.5858C6.21138 11.9609 6.00067 12.4696 6.00067 13C6.00067 13.5304 6.21138 14.0391 6.58646 14.4142C6.96153 14.7893 7.47024 15 8.00067 15C9.05373 14.9993 10.0881 14.7215 10.9997 14.1945C11.9114 13.6674 12.6683 12.9097 13.1944 11.9975C13.7205 11.0853 13.9972 10.0507 13.9968 8.9976C13.9964 7.94454 13.7188 6.91014 13.192 5.99833C12.6652 5.08653 11.9077 4.32944 10.9956 3.80313C10.0835 3.27682 9.04892 2.99983 7.99586 3C6.9428 3.00017 5.90834 3.27749 4.99641 3.80409C4.08448 4.33069 3.3272 5.08802 2.80067 6C2.66843 6.22827 2.58266 6.48044 2.54829 6.742C2.51393 7.00355 2.53165 7.26933 2.60043 7.52401C2.66921 7.77869 2.7877 8.01724 2.94907 8.22594C3.11043 8.43463 3.3115 8.60934 3.54067 8.74C3.9999 9.00074 4.54363 9.06928 5.0532 8.93064C5.56277 8.79201 5.99683 8.45746 6.26067 8C6.43688 7.69479 6.69061 7.44156 6.99616 7.26595C7.30172 7.09035 7.64825 6.9986 8.00067 7ZM32.0007 9H20.0007C19.4702 9 18.9615 9.21071 18.5865 9.58579C18.2114 9.96086 18.0007 10.4696 18.0007 11C18.0007 11.5304 18.2114 12.0391 18.5865 12.4142C18.9615 12.7893 19.4702 13 20.0007 13H32.0007C32.5311 13 33.0398 13.2107 33.4149 13.5858C33.79 13.9609 34.0007 14.4696 34.0007 15V34.44L30.8607 31.54C30.4918 31.1947 30.0059 31.0017 29.5007 31H12.0007C11.4702 31 10.9615 30.7893 10.5865 30.4142C10.2114 30.0391 10.0007 29.5304 10.0007 29V27C10.0007 26.4696 9.78996 25.9609 9.41488 25.5858C9.03981 25.2107 8.5311 25 8.00067 25C7.47024 25 6.96153 25.2107 6.58646 25.5858C6.21138 25.9609 6.00067 26.4696 6.00067 27V29C6.00067 30.5913 6.63281 32.1174 7.75803 33.2426C8.88325 34.3679 10.4094 35 12.0007 35H28.7207L34.7207 40.46C35.0691 40.7872 35.5232 40.9787 36.0007 41C36.275 40.997 36.5463 40.9427 36.8007 40.84C37.1584 40.6839 37.4627 40.4265 37.6759 40.0995C37.8891 39.7725 38.002 39.3903 38.0007 39V15C38.0007 13.4087 37.3685 11.8826 36.2433 10.7574C35.1181 9.63214 33.592 9 32.0007 9Z" fill="url(#paint0_linear_2454_12836)"/>
</g>
</g>
<defs>
<filter id="filter0_di_2454_12836" x="1.53125" y="3" width="37.4697" height="40" filterUnits="userSpaceOnUse" color-interpolation-filters="sRGB">
<feFlood flood-opacity="0" result="BackgroundImageFix"/>
<feColorMatrix in="SourceAlpha" type="matrix" values="0 0 0 0 0 0 0 0 0 0 0 0 0 0 0 0 0 0 127 0" result="hardAlpha"/>
<feOffset dy="1"/>
<feGaussianBlur stdDeviation="0.5"/>
<feComposite in2="hardAlpha" operator="out"/>
<feColorMatrix type="matrix" values="0 0 0 0 0 0 0 0 0 0 0 0 0 0 0 0 0 0 0.25 0"/>
<feBlend mode="normal" in2="BackgroundImageFix" result="effect1_dropShadow_2454_12836"/>
<feBlend mode="normal" in="SourceGraphic" in2="effect1_dropShadow_2454_12836" result="shape"/>
<feColorMatrix in="SourceAlpha" type="matrix" values="0 0 0 0 0 0 0 0 0 0 0 0 0 0 0 0 0 0 127 0" result="hardAlpha"/>
<feOffset dy="1"/>
<feGaussianBlur stdDeviation="0.5"/>
<feComposite in2="hardAlpha" operator="arithmetic" k2="-1" k3="1"/>
<feColorMatrix type="matrix" values="0 0 0 0 1 0 0 0 0 1 0 0 0 0 1 0 0 0 1 0"/>
<feBlend mode="normal" in2="shape" result="effect2_innerShadow_2454_12836"/>
</filter>
<linearGradient id="paint0_linear_2454_12836" x1="-3.28795" y1="-2.34375" x2="50.0488" y2="56.6708" gradientUnits="userSpaceOnUse">
<stop stop-color="#000826"/>
<stop offset="0.422616" stop-color="#001971"/>
<stop offset="1" stop-color="#0029BC"/>
</linearGradient>
<clipPath id="clip0_2454_12836">
<rect width="42" height="41" fill="white"/>
</clipPath>
</defs>
</svg>
