<svg width="22" height="28" viewBox="0 0 22 28" fill="none" xmlns="http://www.w3.org/2000/svg">
<path d="M6.99967 11.3333H8.33301C8.68663 11.3333 9.02577 11.1928 9.27582 10.9428C9.52587 10.6927 9.66634 10.3536 9.66634 9.99996C9.66634 9.64634 9.52587 9.3072 9.27582 9.05715C9.02577 8.8071 8.68663 8.66663 8.33301 8.66663H6.99967C6.64605 8.66663 6.30691 8.8071 6.05687 9.05715C5.80682 9.3072 5.66634 9.64634 5.66634 9.99996C5.66634 10.3536 5.80682 10.6927 6.05687 10.9428C6.30691 11.1928 6.64605 11.3333 6.99967 11.3333ZM6.99967 14C6.64605 14 6.30691 14.1404 6.05687 14.3905C5.80682 14.6405 5.66634 14.9797 5.66634 15.3333C5.66634 15.6869 5.80682 16.0261 6.05687 16.2761C6.30691 16.5261 6.64605 16.6666 6.99967 16.6666H14.9997C15.3533 16.6666 15.6924 16.5261 15.9425 16.2761C16.1925 16.0261 16.333 15.6869 16.333 15.3333C16.333 14.9797 16.1925 14.6405 15.9425 14.3905C15.6924 14.1404 15.3533 14 14.9997 14H6.99967ZM21.6663 9.91996C21.6525 9.79747 21.6256 9.6768 21.5863 9.55996V9.43996C21.5222 9.30287 21.4367 9.17685 21.333 9.06663L13.333 1.06663C13.2228 0.962914 13.0968 0.877401 12.9597 0.813292C12.9199 0.807639 12.8795 0.807639 12.8397 0.813292C12.7042 0.735614 12.5546 0.685752 12.3997 0.666626H4.33301C3.27214 0.666626 2.25473 1.08805 1.50458 1.8382C0.754435 2.58834 0.333008 3.60576 0.333008 4.66663V23.3333C0.333008 24.3942 0.754435 25.4116 1.50458 26.1617C2.25473 26.9119 3.27214 27.3333 4.33301 27.3333H17.6663C18.7272 27.3333 19.7446 26.9119 20.4948 26.1617C21.2449 25.4116 21.6663 24.3942 21.6663 23.3333V9.99996C21.6663 9.99996 21.6663 9.99996 21.6663 9.91996ZM13.6663 5.21329L17.1197 8.66663H14.9997C14.6461 8.66663 14.3069 8.52615 14.0569 8.2761C13.8068 8.02605 13.6663 7.68691 13.6663 7.33329V5.21329ZM18.9997 23.3333C18.9997 23.6869 18.8592 24.0261 18.6092 24.2761C18.3591 24.5261 18.02 24.6666 17.6663 24.6666H4.33301C3.97939 24.6666 3.64025 24.5261 3.3902 24.2761C3.14015 24.0261 2.99967 23.6869 2.99967 23.3333V4.66663C2.99967 4.313 3.14015 3.97387 3.3902 3.72382C3.64025 3.47377 3.97939 3.33329 4.33301 3.33329H10.9997V7.33329C10.9997 8.39416 11.4211 9.41157 12.1712 10.1617C12.9214 10.9119 13.9388 11.3333 14.9997 11.3333H18.9997V23.3333ZM14.9997 19.3333H6.99967C6.64605 19.3333 6.30691 19.4738 6.05687 19.7238C5.80682 19.9739 5.66634 20.313 5.66634 20.6666C5.66634 21.0202 5.80682 21.3594 6.05687 21.6094C6.30691 21.8595 6.64605 22 6.99967 22H14.9997C15.3533 22 15.6924 21.8595 15.9425 21.6094C16.1925 21.3594 16.333 21.0202 16.333 20.6666C16.333 20.313 16.1925 19.9739 15.9425 19.7238C15.6924 19.4738 15.3533 19.3333 14.9997 19.3333Z" fill="#F8F8F6"/>
</svg>
